<?xml version="1.0" encoding="UTF-8"?>
<svg xmlns="http://www.w3.org/2000/svg" id="Capa_1" data-name="Capa 1" viewBox="0 0 768 300">
  <defs>
    <style>.cls-1{font-size:42.16px;font-family:Montserrat-Regular, Montserrat;letter-spacing:0.03em;}.cls-2{letter-spacing:0.02em;}.cls-3{letter-spacing:0.02em;}.cls-4{letter-spacing:0.01em;}.cls-5{letter-spacing:0.03em;}.cls-6{font-size:67.75px;font-family:Montserrat-SemiBold, Montserrat;font-weight:600;letter-spacing:0.03em;}.cls-7{letter-spacing:0em;}.cls-8{letter-spacing:0.02em;}</style>
  </defs>
  <path d="M242.29,213.49c-3.47-6.5-6.84-13.06-10.44-19.49s-7.43-12.73-12.26-21c18.7-3.16,16.13,16.41,29,20.92,1.41-8,6.06-17.5,3.08-22.89-2.49-4.52-14-6.35-21.3-5.83-36.09,2.6-67.47,18.39-98,36.13-4.33,2.52-8.27,6.73-12.86,7.5-5.43.91-13,.79-16.61-2.3S98.27,196,98.8,190.78c.5-5,3.84-10.22,7.08-14.5,21.64-28.64,43.56-57.06,65.47-85.5,1.45-1.89,3.52-3.31,7.47-7l36.57,62c-10.33,3.76-10.31,3.75-21.15-14.83-5.23-9-10.53-17.88-17.07-29l-42.52,74.63c26.3-7.4,50-14.91,74.21-20.49,11.06-2.55,23.09-2.25,34.56-1.53,15.91,1,23.3,9.85,19.51,25-3,11.77-9.59,22.64-14.58,33.91Z"></path>
  <text class="cls-1" transform="translate(285.56 140.59)">ARCHIT<tspan class="cls-2" x="168.79" y="0">E</tspan><tspan class="cls-3" x="197.92" y="0">C</tspan><tspan class="cls-4" x="228.94" y="0">T</tspan><tspan class="cls-5" x="253.65" y="0">URAL</tspan></text>
  <text class="cls-6" transform="translate(281.21 198.21)">SUR<tspan class="cls-7" x="150.87" y="0">F</tspan><tspan class="cls-8" x="193.75" y="0">A</tspan><tspan x="245.58" y="0">CES</tspan></text>
</svg>
