<?xml version="1.0" encoding="UTF-8"?>
<svg xmlns="http://www.w3.org/2000/svg" id="Ebene_1" data-name="Ebene 1" viewBox="0 0 142.9 36.81">
  <path d="M0,.4H10.6c4.9,0,9.8,1.2,9.8,6.9,0,2.2-1.1,4.5-3.3,5.2,2.7,1,4.5,3,4.5,6,0,5.2-4.8,6.9-9.2,6.9H0V.4ZM9.3,10c1.3,0,2.8-.1,2.8-1.9s-1.7-1.7-3-1.7H8.4V10Zm-.9,9.5h1c1.5,0,3.7,0,3.7-2.1s-2.3-2.1-3.8-2.1H8.4v4.2Z" transform="translate(0 0)"></path>
  <polygon points="22.5 0.4 31.6 0.4 31.6 17.4 39.2 17.4 39.2 25.5 22.5 25.5 22.5 0.4 22.5 0.4"></polygon>
  <path d="M68.5.4h8.7l8.2,13.9h.3a35,35,0,0,1-.8-6.4V.4h8.7V25.5H84.9l-8-13.2h-.3a29.6,29.6,0,0,1,.6,5v8.1H68.5V.4Z" transform="translate(0 0)"></path>
  <path d="M114.2,10.6A7.72,7.72,0,0,0,108.9,8a5,5,0,0,0-5,4.9,5,5,0,0,0,5.1,4.9,7.19,7.19,0,0,0,5.2-2.3l-.3,9.4a20.52,20.52,0,0,1-6.5,1A12.59,12.59,0,0,1,94.7,13.2,13.1,13.1,0,0,1,107.8,0a20.51,20.51,0,0,1,6.1,1l.3,9.6Z" transform="translate(0 0)"></path>
  <path d="M142.9,13c0,8-6.2,12.9-13.9,12.9S115.1,21.1,115.1,13c0-7.9,6.2-13,13.9-13s13.9,5.1,13.9,13Zm-18.6.1a4.49,4.49,0,0,0,4.7,4.8,4.54,4.54,0,0,0,4.7-4.8A4.62,4.62,0,0,0,129,8.2a4.68,4.68,0,0,0-4.7,4.9Z" transform="translate(0 0)"></path>
  <path d="M49.6,25.5H40L48.7.4H58.8l8.9,25.1H58l-.8-3.1H50.3l-.7,3.1ZM53.8,8.7c0,1.1-1.8,7.7-1.8,7.7h3.7a54,54,0,0,1-1.9-7.7Z" transform="translate(0 0)"></path>
  <path d="M106.65,30.46a.76.76,0,0,0-.41-.59,1.51,1.51,0,0,0-.73-.16c-.62,0-.9.18-.9.49,0,1.3,5,.5,5,3.64,0,2-1.67,3-4,3s-3.76-1.33-3.82-2.89h2.71a1,1,0,0,0,.47.69,1.54,1.54,0,0,0,.8.21c.71,0,1.18-.23,1.18-.63,0-1.31-5-.41-5-3.71,0-1.83,1.58-2.76,3.74-2.76,2.4,0,3.49,1.23,3.7,2.74Z" transform="translate(0 0)"></path>
  <path d="M110.89,36.58V28h2.83v8.63Z" transform="translate(0 0)"></path>
  <path d="M121.2,32.66l-.1-2V28h2.71v8.63h-2.65l-3.09-4.7.11,2v2.73h-2.71V28h2.65Z" transform="translate(0 0)"></path>
  <path d="M125.54,28h2.83v2.79L130.85,28h3.32L131,31.2l3.49,5.38h-3.39L129,33.14l-.67.71v2.73h-2.83Z" transform="translate(0 0)"></path>
  <path d="M140,30.46a.75.75,0,0,0-.4-.59,1.58,1.58,0,0,0-.74-.16c-.62,0-.9.18-.9.49,0,1.3,5,.5,5,3.64,0,2-1.67,3-4,3s-3.77-1.33-3.83-2.89h2.71a1,1,0,0,0,.47.69,1.59,1.59,0,0,0,.8.21c.71,0,1.18-.23,1.18-.63,0-1.31-5-.41-5-3.71,0-1.83,1.59-2.76,3.75-2.76,2.39,0,3.49,1.23,3.69,2.74Z" transform="translate(0 0)"></path>
</svg>
