<?xml version="1.0" encoding="UTF-8"?>
<svg xmlns="http://www.w3.org/2000/svg" id="Capa_1" data-name="Capa 1" viewBox="0 0 768 300">
  <path d="M516.53,124.26c.12-2.39.21-4.31.32-6.68l9.38-1.94c.15,2.85.29,5.49.45,8.5H541v8H526.46v12.45c0,5.6,0,11.21,0,16.81,0,9.44,4.68,13,13.8,10.7a10.73,10.73,0,0,1,1.45-.2,3.39,3.39,0,0,1,.35.83c.51,6.81.5,6.81-6.08,7.9-11.61,1.93-19.11-4.26-19.25-16-.1-9.25,0-18.51,0-27.76v-4.44c-11.27,0-22.05-.23-32.81.1-4.71.14-6.86,5.1-4,8.89,1.49,2,3.85,3.42,6.05,4.73,2.89,1.72,6.08,2.94,9,4.61,5.45,3.11,8.31,7.86,7.87,14.19-.5,7.05-4.26,12-10.83,14.41-6.86,2.54-13.85,2.08-20.65-.33-1.07-.38-2.05-2.08-2.35-3.33-.4-1.7-.1-3.56-.1-5.59,3.71,1,6.89,2.3,10.16,2.67a18.75,18.75,0,0,0,8.33-.87c6.1-2.29,7-9.23,1.58-12.9-4-2.7-8.42-4.64-12.61-7-6.1-3.44-8.83-8.7-7.81-14.82,1.43-8.54,6.7-12.81,16.26-12.92,9.12-.1,18.24,0,27.36,0Z"></path>
  <path d="M126,200.3c-16,2.92-31.25.94-45.35-7.68a48.69,48.69,0,0,1-12.85-71.69c10.84-13.86,25.47-20.61,42.37-23.05a129.23,129.23,0,0,1,17.5-1c21-.11,41.94,0,62.91,0h3.75l.24,1.35c-5.34,1.2-10.62,2.88-16,3.49a205.73,205.73,0,0,1-20.64.87c-12.37.13-24.77-.42-37.12.17-16.46.79-31,6.29-41.54,19.83C66.07,139.49,64.56,170,87.3,187c10,7.48,21.25,11.22,33.51,12.47C122.48,199.65,124.14,200,126,200.3Z"></path>
  <path d="M671.46,154.15c-.89,8.13,4.33,15.49,12.4,18.13,5.54,1.81,7,1.57,22.56-3.7,0,2.42.13,4.72-.07,7a3.17,3.17,0,0,1-1.44,2.34c-10.3,4.28-28.33,5.17-37.52-5.27-9.64-11-9.12-33.19,1.51-43,7.71-7.15,17.12-8.11,26.66-5.08,10.21,3.23,13.61,12,14.56,21.61.85,8.69,2,8-7.22,8Zm28.58-7.5c.54-9.44-5.57-15.8-14.69-15.76-7.9,0-14.52,7.44-13.85,15.76Z"></path>
  <path d="M425.59,179.24h-8.11c-.19-2.09-.38-4.08-.61-6.58a21.38,21.38,0,0,0-2.06,1.52,23.69,23.69,0,0,1-26.66,4.59c-10.39-4.72-12.48-19.21-3.82-26.69,6-5.17,13.34-6.1,20.81-6.46,3.36-.17,6.72,0,10.05,0,1.8-7.74-3-14-10.89-14.67a27.66,27.66,0,0,0-17.74,4.66c-2.32-6.81-1.95-7.85,4.42-10.3a34.61,34.61,0,0,1,21.84-1c8.72,2.35,11.7,9.18,12.61,17.35a40.91,40.91,0,0,1,.15,4.29C425.59,157,425.59,168,425.59,179.24Zm-10.47-27.19c-6.39.94-12.73,1.35-18.77,2.9-5.39,1.38-7.5,5.46-6.72,10.32.68,4.25,4.85,7.41,10,7.58C411,173.23,417.42,165.33,415.12,152.05Z"></path>
  <path d="M334.19,153.69H294.51a17,17,0,0,0,5.81,14.52c6.7,6.2,12.89,6.25,29.26.34,0,2.56.11,5-.06,7.35a2.74,2.74,0,0,1-1.38,2c-10.92,3.9-22,5.15-32.35-1.13-11.28-6.86-12.92-18.28-11.64-30.18,1.22-11.29,6.74-19.9,18.39-22.54,16.56-3.77,28.37,3.13,30.81,21.07C333.71,147.8,333.88,150.49,334.19,153.69Zm-39.75-7.07h28.72c1-8-4.31-14.82-11.83-15.65C302,129.94,295.44,135.84,294.44,146.62Z"></path>
  <path d="M277.2,179.24c-1,.06-2.14.15-3.29.17-1.54,0-3.08,0-4.86,0-.15-2.34-.29-4.35-.37-5.56-4.41,2.15-8.73,5.18-13.5,6.29-4.07,1-8.77.25-13-.67A13.39,13.39,0,0,1,231.36,168c-1.15-6.69.1-12.68,6.06-16.95,5.66-4.05,12.18-5,18.83-5.44,1.94-.14,3.9-.07,5.85,0,6.24.11,6.66-.43,4.9-6.5-1.39-4.84-5.47-7.73-11.15-8.18a27.72,27.72,0,0,0-17.69,4.87c-1.74-7.27-1.37-9,5.37-10.56a57.19,57.19,0,0,1,19.18-1.32c8.74,1,14,8.07,14.3,17.4.29,7.41.16,14.83.19,22.25C277.22,168.6,277.2,173.66,277.2,179.24Zm-16.41-27.16c-4.51,1-9.12,1.74-13.5,3.17a8.76,8.76,0,0,0-6.09,8.64,9.16,9.16,0,0,0,7,8.44c9.19,2.28,18.19-2.78,19.25-11.83C268.31,152.84,268.44,152.81,260.79,152.08Z"></path>
  <path d="M542.92,151.75c0-17.19,11.38-28.74,28.13-28.66,16.49.08,28.2,12.21,28,29S586.56,181,569.7,180.92C554.76,180.87,542.88,167.92,542.92,151.75Zm46.35.38a29,29,0,0,0-5-14.48,16.13,16.13,0,0,0-26.6-.19c-5.74,8-6,16.7-2.09,25.51,2.91,6.53,8.08,9.87,15.37,9.94s12.24-3.35,15.06-9.7C587.59,159.73,588.22,155.84,589.27,152.13Z"></path>
  <path d="M614.88,179.19h-9.4V124.54h8.92l.51,8.55c5.68-8,12.83-10.59,21.5-9.8S652,129,652.79,137.78c1.27,13.66,1.12,27.45,1.59,41.42h-9.82c-.1-1.35-.27-2.71-.28-4.08-.08-9.51-.09-19-.2-28.53a35.43,35.43,0,0,0-.59-5c-.81-5.11-3-9.44-8.45-10.49-6.13-1.19-11.7.32-15.58,5.67-3.51,4.84-4.5,10.47-4.55,16.27C614.82,161.61,614.88,170.19,614.88,179.19Z"></path>
  <path d="M340,170.57c4.94.77,9.49,1.93,14.07,2.08,4.92.15,8.39-2.66,9-6.46.74-4.35-2-6.74-5.35-8.61-3.85-2.17-7.83-4.11-11.62-6.37-5.32-3.17-7.77-7.92-6.88-14.14.92-6.4,4.69-10.69,10.68-12.76,6.22-2.14,12.6-1.51,18.81.26.91.26,1.86,1.93,2,3a19,19,0,0,1-.65,4.77c-4.33-.5-8.52-1.43-12.69-1.36-6,.09-9.4,4.39-7.34,9.1.91,2.07,3.06,3.85,5.05,5.12,3.06,1.94,6.51,3.25,9.71,5,7,3.8,9.49,8.79,8.46,16.77a14.92,14.92,0,0,1-12.76,13c-5.29.68-10.79-.06-16.18-.39-3.86-.24-5.53-2.34-4.51-6.29A12.58,12.58,0,0,0,340,170.57Z"></path>
  <path d="M118.38,115.6c17.46.64,31.86,6.09,39.78,22,6.25,12.57,6.53,25.6-2.7,37.08S133.69,190.1,119.15,187a7.86,7.86,0,0,1-2.56-1.14,37.89,37.89,0,0,0,23.09-9.92,32.52,32.52,0,0,0,11.1-22.51C151.94,135.81,142.67,125,118.38,115.6Z"></path>
  <path d="M223.75,132.66c-9.92-2.8-18.73-3.2-25,6-5.24,7.71-5.1,19.88.24,27.32,5.19,7.23,11.81,8.51,25.36,4.89,1.25,8.62.53,9.5-8.1,10-13.6.78-24.1-5.19-29.18-16.59s-2.89-25.34,5.84-33.64c8.57-8.15,19-9,29.88-6.11.8.21,1.68,1.82,1.74,2.82C224.63,129,224.08,130.65,223.75,132.66Z"></path>
  <path d="M434.71,179.18V124.6h8.73c.15,2.39.32,4.88.56,8.69,5.45-8.95,12.37-11.95,21.42-9.44-1.26,5.23-3.26,7.16-7.91,7.85-4.31.64-7.84,3-9.35,6.84a49.94,49.94,0,0,0-3.64,14.53c-.58,8.55-.16,17.16-.16,26.11Z"></path>
  <path d="M119.11,127.57c-15.49,5.59-21,12-20.46,23.6s6.37,18.4,18.66,21.64c-7,2.92-16.56.47-22.88-6.34s-7.17-15.27-3.71-23.62C95.81,130.56,106.07,126.77,119.11,127.57Z"></path>
</svg>
