<?xml version="1.0" encoding="UTF-8"?>
<svg xmlns="http://www.w3.org/2000/svg" viewBox="0 0 126.61 29.2">
  <defs>
    <style>.cls-1{fill:#fff;}</style>
  </defs>
  <g id="Capa_2" data-name="Capa 2">
    <g id="Capa_1-2" data-name="Capa 1">
      <path d="M44.36,19a3.67,3.67,0,0,1-1.38.57,6.51,6.51,0,0,1-1.62.15,6,6,0,0,1-2.76-.63,4.67,4.67,0,0,1-1.82-1.73,5.29,5.29,0,0,1-.65-2.54,5,5,0,0,1,.67-2.59,4.61,4.61,0,0,1,1.84-1.77,5.54,5.54,0,0,1,2.7-.66,6.37,6.37,0,0,1,3,.61v2A4.73,4.73,0,0,0,43,11.75a5,5,0,0,0-1.52-.21,3.19,3.19,0,0,0-2.23.89,3.13,3.13,0,0,0-.91,2.3,3.19,3.19,0,0,0,.4,1.6,3,3,0,0,0,1.06,1.18A2.88,2.88,0,0,0,41.3,18a5.2,5.2,0,0,0,1.54-.17A4.29,4.29,0,0,0,44.33,17v2Z"></path>
      <path d="M54,14.75a3.68,3.68,0,0,0-.69-2.36,2.58,2.58,0,0,0-3.93,0,3.72,3.72,0,0,0-.7,2.36,3.72,3.72,0,0,0,.7,2.36,2.58,2.58,0,0,0,3.93,0A3.89,3.89,0,0,0,54,14.75m2.15,0a5.42,5.42,0,0,1-.61,2.62,4.22,4.22,0,0,1-1.67,1.73,5.32,5.32,0,0,1-2.53.63,4.92,4.92,0,0,1-2.53-.63,4.39,4.39,0,0,1-1.69-1.73,5.72,5.72,0,0,1-.61-2.62,5,5,0,0,1,1.33-3.61,4.8,4.8,0,0,1,3.5-1.37,4.72,4.72,0,0,1,3.51,1.37,5.15,5.15,0,0,1,1.3,3.61"></path>
      <path d="M65.1,16.8a2.7,2.7,0,0,1-.47,1.54,2.82,2.82,0,0,1-1.22,1,4.57,4.57,0,0,1-1.73.38q-.69,0-1.41-.06a6.54,6.54,0,0,1-1.38-.3l-.18-2.07a5,5,0,0,0,1.26.57,5.43,5.43,0,0,0,1.63.24,1.54,1.54,0,0,0,1-.34A1,1,0,0,0,63,17a1,1,0,0,0-.25-.68,2.63,2.63,0,0,0-.72-.46l-1.29-.59a3.56,3.56,0,0,1-1.46-1.12,2.5,2.5,0,0,1-.44-1.44,2.65,2.65,0,0,1,1-2.13,4.11,4.11,0,0,1,2.56-.78,5.58,5.58,0,0,1,1.33.17,4.52,4.52,0,0,1,1.07.38v1.94a4.36,4.36,0,0,0-1.28-.74,3.54,3.54,0,0,0-1.12-.17,1.87,1.87,0,0,0-1.08.3.9.9,0,0,0-.42.78,1.06,1.06,0,0,0,.3.72,2.07,2.07,0,0,0,.71.48l1.48.68a3,3,0,0,1,1.18.93,2.58,2.58,0,0,1,.53,1.54"></path>
      <polygon points="74.49 17.87 73.88 19.54 68.39 19.54 68.39 9.94 74.28 9.94 73.71 11.59 70.46 11.59 70.46 13.88 73.62 13.88 73.08 15.49 70.46 15.49 70.46 17.87 74.49 17.87"></polygon>
      <polygon points="85.78 19.54 84.64 19.54 79.74 13.48 79.74 19.54 77.91 19.54 77.91 11.18 76.89 9.94 79.53 9.94 83.94 15.47 83.94 9.94 85.78 9.94 85.78 19.54"></polygon>
      <polygon points="95.76 9.94 95.21 11.67 92.78 11.67 92.78 19.54 90.72 19.54 90.72 11.67 88.14 11.67 88.14 9.94 95.76 9.94"></polygon>
      <rect x="98.08" y="9.94" width="2.07" height="9.6"></rect>
      <polygon points="111.99 19.54 110.85 19.54 105.95 13.48 105.95 19.54 104.12 19.54 104.12 11.18 103.1 9.94 105.72 9.94 110.13 15.47 110.13 9.94 111.99 9.94 111.99 19.54"></polygon>
      <path d="M122.16,14.75a3.63,3.63,0,0,0-.7-2.36,2.57,2.57,0,0,0-3.92,0,3.67,3.67,0,0,0-.7,2.36,3.67,3.67,0,0,0,.7,2.36,2.57,2.57,0,0,0,3.92,0,3.59,3.59,0,0,0,.7-2.36m2.17,0a5.42,5.42,0,0,1-.61,2.62,4.22,4.22,0,0,1-1.67,1.73,5.35,5.35,0,0,1-2.53.63A4.92,4.92,0,0,1,117,19.1a4.22,4.22,0,0,1-1.67-1.73,5.72,5.72,0,0,1-.61-2.62A5,5,0,0,1,116,11.14a4.77,4.77,0,0,1,3.5-1.37,4.68,4.68,0,0,1,3.5,1.37,5.19,5.19,0,0,1,1.29,3.61"></path>
      <path d="M126,10.72c0,.13-.07.17-.21.17h-.15v-.32h.15c.08,0,.12,0,.14,0a.13.13,0,0,1,.07.13m.23.67-.32-.4a.26.26,0,0,0,.26-.27c0-.19-.11-.27-.36-.27h-.34v.94h.17V11h.1l.3.4Zm.27-.48a.7.7,0,0,1-.69.7.7.7,0,1,1,.69-.7m.13,0a.83.83,0,1,0-.82.82.8.8,0,0,0,.82-.82"></path>
      <rect width="29.18" height="29.2"></rect>
      <polygon class="cls-1" points="19.31 9.05 9.88 9.05 9.88 20.15 19.31 20.15 19.31 16.59 13.7 16.59 13.7 12.62 18.13 12.62 19.31 9.05"></polygon>
    </g>
  </g>
</svg>
