<?xml version="1.0" encoding="UTF-8"?>
<svg xmlns="http://www.w3.org/2000/svg" viewBox="0 0 122.13 24.95">
  <g id="Capa_2" data-name="Capa 2">
    <g id="Capa_1-2" data-name="Capa 1">
      <path d="M81.27,25l-.13-.06-.32,0a2.31,2.31,0,0,1-.78-.16,1.12,1.12,0,0,0-.26-.08,1.5,1.5,0,0,1-.41-.18,3.62,3.62,0,0,1-.43-.24,2.44,2.44,0,0,1-.81-.85,2.35,2.35,0,0,1-.22-.45,3.5,3.5,0,0,1-.17-.55,6.44,6.44,0,0,1-.06-1.24V9.42c-.38,0-.75,0-1.11,0H74.33V8.81h.14l.67,0c.27,0,.54,0,.81-.08a5.08,5.08,0,0,0,.65-.15,5.39,5.39,0,0,0,.66-.18,2.77,2.77,0,0,0,.46-.22,3.92,3.92,0,0,0,1.09-.81,4.62,4.62,0,0,0,.66-.93c.12-.22.23-.44.34-.66s.07-.18.1-.26.11-.44.18-.66.11-.3.15-.45.06-.3.09-.45.07-.35.11-.53h.39a.41.41,0,0,1,.07.32V8.45c0,.11,0,.22,0,.34h.22c2.4,0,4.8,0,7.2,0a2.62,2.62,0,0,0,.74-.06,1.31,1.31,0,0,1,.28,0,1.44,1.44,0,0,0,.46-.08,2.72,2.72,0,0,1,.43-.09,2.47,2.47,0,0,0,1-.49L91.36,8a2.45,2.45,0,0,1,0,.25c0,.79,0,1.57,0,2.36v13.2c.15.05,6,.06,6.22,0V.64h-3V.07c.13,0,6,0,6.27,0V23.82h3a1,1,0,0,1,0,.55s-.07.08-.12.09a.53.53,0,0,1-.18,0H85.44a.54.54,0,0,1-.35-.06v-.56c.34,0,.68,0,1,0h2c0-.14,0-14.19,0-14.42h-7.2l0,.14V22.13c0,.28,0,.55,0,.82A.19.19,0,0,0,81,23a2.35,2.35,0,0,0,.41.84,1.36,1.36,0,0,0,.47.32,2.2,2.2,0,0,0,1,.07,2,2,0,0,0,.87-.38,3.72,3.72,0,0,0,.9-.87,3.64,3.64,0,0,0,.6-1,.55.55,0,0,1,.13-.15c.14.13.37,0,.51.2-.09.19-.18.4-.28.59s-.2.33-.31.5a4.69,4.69,0,0,1-1,1,2.06,2.06,0,0,1-.4.25c-.18.09-.35.17-.53.24a3.29,3.29,0,0,1-1,.24c-.1,0-.21,0-.29.07Z"></path>
      <path d="M36.93,25a.39.39,0,0,0-.11-.06l-.26,0a4.38,4.38,0,0,1-.81-.1,4.25,4.25,0,0,1-.77-.23c-.15-.07-.33-.11-.48-.17a6.82,6.82,0,0,1-1-.51,5.63,5.63,0,0,1-.74-.5,9.85,9.85,0,0,1-.77-.68,5.8,5.8,0,0,1-.83-1,5.24,5.24,0,0,1-.49-.79c-.08-.21-.22-.39-.32-.59a1.55,1.55,0,0,1-.08-.23,6.26,6.26,0,0,1-.25-.65c-.08-.23-.13-.47-.19-.71,0-.05,0-.1,0-.16a.31.31,0,0,1-.05-.1c0-.22-.05-.44-.08-.66a4,4,0,0,1-.08-.59c0-.5,0-1,0-1.5A4.75,4.75,0,0,1,29.7,15s0,0,0-.06a1.12,1.12,0,0,1,.1-.43,1.05,1.05,0,0,0,.08-.36,2,2,0,0,1,.17-.46c0-.08.05-.16.08-.25a5.77,5.77,0,0,1,.46-1.05,8.36,8.36,0,0,1,.82-1.3,8.22,8.22,0,0,1,.82-.95c.21-.19.4-.4.62-.59A7.59,7.59,0,0,1,33.51,9c.22-.14.44-.28.67-.41s.38-.16.57-.24l.39-.13.31-.11L36.12,8A5.87,5.87,0,0,1,37.51,8a2.67,2.67,0,0,1,.93.15l.29.07a4.93,4.93,0,0,1,.82.35,4.32,4.32,0,0,1,1,.62,6.22,6.22,0,0,1,1.77,2.28c.06.13.13.25.2.38l0,0h0q0-5.5,0-11a1,1,0,0,0,0-.12c-1,0-2,0-3,0V.05h6.26V23.83h2.64c0,.21,0,.4,0,.62l-.21,0H42.65c-.08,0-.13,0-.12-.13V21.71c-.17,0-.19.17-.23.26a5,5,0,0,1-.58.86,5.26,5.26,0,0,1-.85.85,5,5,0,0,1-.92.6l-.62.31a1.17,1.17,0,0,1-.2.06,3.52,3.52,0,0,1-1,.22c-.1,0-.22,0-.3.08Zm-3.66-8.39a29.29,29.29,0,0,0,.06,3.11c0,.23,0,.45.07.68s.08.46.11.7.13.58.2.88a2,2,0,0,0,.08.26,2.26,2.26,0,0,0,.17.35,3.55,3.55,0,0,0,.32.53,2.47,2.47,0,0,0,.5.52,2.63,2.63,0,0,0,.58.35c.16.07.35.1.52.17a2.36,2.36,0,0,0,.79.15,9.55,9.55,0,0,0,1.07,0,5.51,5.51,0,0,0,.57-.06,1.47,1.47,0,0,0,.46-.11,5.27,5.27,0,0,0,.56-.19,4.15,4.15,0,0,0,.75-.4c.21-.17.45-.29.65-.48a5.44,5.44,0,0,0,1-1.16,6.14,6.14,0,0,0,.48-1,4.36,4.36,0,0,0,.26-.92,5.18,5.18,0,0,0,.08-1c0-1.32,0-2.63,0-4,0-.33,0-.67,0-1a3.93,3.93,0,0,0-.15-1,2.61,2.61,0,0,0-.23-.7,3,3,0,0,1-.17-.45,1.63,1.63,0,0,0-.11-.23c-.09-.17-.16-.35-.26-.51s-.35-.48-.53-.71a4.57,4.57,0,0,0-1-1,4.21,4.21,0,0,0-1.22-.65l-.25-.07A4,4,0,0,0,38,8.63a5,5,0,0,0-.66-.08,9,9,0,0,0-1.16.08l-.08,0a3.84,3.84,0,0,1-.4.14,2.34,2.34,0,0,0-1,.57A2.84,2.84,0,0,0,34,10.45a3.64,3.64,0,0,0-.25.65c-.05.22-.13.42-.16.64s-.11.46-.14.69,0,.39-.08.59c0,.42-.08.85-.09,1.28C33.26,15.05,33.27,15.8,33.27,16.56Z"></path>
      <path d="M53.53,25l-.13-.06-.34,0a3.1,3.1,0,0,1-.69-.1,5.21,5.21,0,0,1-.94-.32,4.65,4.65,0,0,1-.78-.45,3.28,3.28,0,0,1-.72-.72,4.66,4.66,0,0,1-.46-.85,3.06,3.06,0,0,1-.22-.81,9.21,9.21,0,0,1,0-1.05,3.72,3.72,0,0,1,.09-.81c0-.13.08-.26.13-.39a.92.92,0,0,1,.09-.23,3.69,3.69,0,0,1,.41-.69c.17-.2.32-.42.51-.61a4.65,4.65,0,0,1,.59-.49c.22-.15.46-.29.7-.43a3.84,3.84,0,0,1,.35-.18l.55-.24c.21-.09.43-.15.64-.23l.37-.14a2,2,0,0,1,.33-.08l.5-.12.61-.14h0c.24,0,.49-.06.73-.11.41-.09.83,0,1.23-.16h.15l2.06,0h.15c.07,0,.11,0,.11-.12V11c0-.16,0-.32,0-.49A1.24,1.24,0,0,0,59.4,10c0-.11-.12-.22-.18-.34A1.48,1.48,0,0,0,58.6,9a2.42,2.42,0,0,0-.72-.31,2.71,2.71,0,0,0-.69-.13c-.23,0-.46,0-.69,0a10.17,10.17,0,0,0-1.1.08,4.39,4.39,0,0,0-.6.15l-.33.07c-.2.07-.41.13-.6.21a3.36,3.36,0,0,0-.42.22,1.65,1.65,0,0,0-.65.71.86.86,0,0,0,.09.79,3.35,3.35,0,0,0,.53.4,1.46,1.46,0,0,1,.46.63,2.28,2.28,0,0,1,.08,1.1,1,1,0,0,1-.25.57c-.1.11-.22.2-.31.31a1.89,1.89,0,0,1-1.08.4,1.55,1.55,0,0,1-1.52-.89,2.84,2.84,0,0,1-.25-1.6,2.27,2.27,0,0,1,.22-.8,4.81,4.81,0,0,1,.25-.51,3.19,3.19,0,0,1,.5-.66,3.31,3.31,0,0,1,.27-.26A5.74,5.74,0,0,1,52.47,9a4.63,4.63,0,0,1,1.11-.56,8,8,0,0,1,1.09-.3A10.85,10.85,0,0,1,57.21,8a4.91,4.91,0,0,1,.67.08l.63.15a4.15,4.15,0,0,1,.48.11l.62.23.19.06a5.75,5.75,0,0,1,.86.43,4.86,4.86,0,0,1,1.15.91,4,4,0,0,1,.64.91,3.64,3.64,0,0,1,.26.72,3.05,3.05,0,0,1,.08.74q0,5,0,9.9c0,.21,0,.43,0,.64a.7.7,0,0,0,.06.32c.05.1.06.22.1.32a.8.8,0,0,0,.46.49.9.9,0,0,0,.75.07A1.87,1.87,0,0,1,64.5,24a1.7,1.7,0,0,0,.43-.26,4.84,4.84,0,0,0,.82-.93l.18-.22a3.56,3.56,0,0,0,.36.26c.07.05.06.09,0,.14a7.64,7.64,0,0,1-.58.79,3.16,3.16,0,0,1-.81.69,4.39,4.39,0,0,1-.62.29,2.73,2.73,0,0,1-.75.17.53.53,0,0,0-.2.07h-.75c-.06-.09-.15-.07-.24-.07a3,3,0,0,1-.89-.21.74.74,0,0,1-.21-.07,5.43,5.43,0,0,1-.75-.5,3.22,3.22,0,0,1-.64-.79c-.11-.22-.2-.45-.3-.69a.34.34,0,0,0-.21.14,3.91,3.91,0,0,1-.37.44c-.22.2-.45.4-.69.59a4.38,4.38,0,0,1-.42.28,3.11,3.11,0,0,1-.55.27l-.56.22a8.22,8.22,0,0,1-.82.21,4.49,4.49,0,0,1-.83.1l-.41,0a.84.84,0,0,0-.14.06Zm6-8.85H57.73a2.07,2.07,0,0,0-.5,0c-.36.08-.74.07-1.1.14s-.64.13-1,.22a4.34,4.34,0,0,0-.88.4,2.86,2.86,0,0,0-.67.52A3.15,3.15,0,0,0,53,18.46a4.21,4.21,0,0,0-.2.63,6.11,6.11,0,0,0-.08.86,8.22,8.22,0,0,0,0,.86,5.19,5.19,0,0,0,.24,1.61,2.51,2.51,0,0,0,.51.9,1.78,1.78,0,0,0,.66.44,2.18,2.18,0,0,0,.76.19s.1,0,.15,0a8.22,8.22,0,0,0,.86,0,3.1,3.1,0,0,0,.85-.15c.15-.06.31-.09.46-.14l.32-.13A3.29,3.29,0,0,0,58,23.3a8,8,0,0,0,.71-.6,3.35,3.35,0,0,0,.77-1.12,1.52,1.52,0,0,0,.1-.63V16.29A1.28,1.28,0,0,0,59.55,16.1Z"></path>
      <path d="M111.69,25a.52.52,0,0,0-.13-.06,3,3,0,0,1-.42,0,3.47,3.47,0,0,1-.78-.15,2.88,2.88,0,0,0-.4-.09l-.37-.1-.53-.24-.63-.31a4.89,4.89,0,0,1-.77-.51,8.65,8.65,0,0,1-.78-.7c-.22-.22-.4-.46-.59-.69a5.5,5.5,0,0,1-.38-.56,5.63,5.63,0,0,1-.42-.76,5.32,5.32,0,0,1-.32-.78c0-.23-.16-.44-.22-.66a5.29,5.29,0,0,1-.13-.54c0-.23-.1-.47-.14-.71a.17.17,0,0,1,0-.07c0-.42-.06-.84-.08-1.27a7.85,7.85,0,0,1,0-.84c0-.24,0-.48.07-.72s.1-.52.16-.78.13-.43.21-.64a4.41,4.41,0,0,1,.23-.64q.26-.57.54-1.11c.12-.22.27-.42.39-.64a5.13,5.13,0,0,1,.65-.88,12.46,12.46,0,0,1,.88-.9,5.69,5.69,0,0,1,1.19-.87,6.08,6.08,0,0,1,.68-.33,2.83,2.83,0,0,1,.55-.21c.23,0,.45-.12.68-.16a6.72,6.72,0,0,1,1.27,0,4,4,0,0,1,.83.09c.25.05.49.15.73.22a4,4,0,0,1,.88.37,4.92,4.92,0,0,1,.9.61l.62.5a1.7,1.7,0,0,1,.19.19c.21.24.41.47.6.71a5.9,5.9,0,0,1,.61.87c.1.19.23.36.34.54s.16.34.23.5.17.4.24.6.17.52.24.79a2.45,2.45,0,0,1,.07.71.23.23,0,0,1-.22.27,1.94,1.94,0,0,1-.34,0H108.4a.12.12,0,0,0-.14.14v4.19a3.32,3.32,0,0,0,.08.94.88.88,0,0,1,0,.17,6.73,6.73,0,0,0,.09.77,5.41,5.41,0,0,0,.19.69,6.19,6.19,0,0,0,.23.6,2.25,2.25,0,0,0,.28.47,3.29,3.29,0,0,0,.8.78,2.27,2.27,0,0,0,.48.27,3.53,3.53,0,0,0,.59.22,4,4,0,0,0,.77.09,11.2,11.2,0,0,0,1.16,0,3.56,3.56,0,0,0,.78-.14c.2-.07.42-.11.62-.18s.49-.2.73-.31a3.84,3.84,0,0,0,.39-.22,4.14,4.14,0,0,0,.88-.68l.46-.46c.12-.13.22-.27.33-.41a4.59,4.59,0,0,0,.42-.66,3.88,3.88,0,0,0,.35-.78c.06-.22.17-.42.23-.63s.11-.46.17-.69a.39.39,0,0,1,0-.06h.58a.85.85,0,0,1,0,.23c-.06.25-.11.51-.19.75a8.57,8.57,0,0,1-.3.85,8.25,8.25,0,0,1-.49.93,6.21,6.21,0,0,1-.51.72,5.12,5.12,0,0,1-.55.59,2.23,2.23,0,0,1-.21.22c-.17.14-.33.28-.5.4s-.43.23-.63.37a2.93,2.93,0,0,1-.56.28,7.76,7.76,0,0,1-1,.33l-.61.13a5.44,5.44,0,0,1-.58.05l-.15.06Zm-3.42-10.64h6.43a.18.18,0,0,0,.18-.17.57.57,0,0,0,0-.13c0-.36,0-.73,0-1.09a11.73,11.73,0,0,0-.1-1.33.36.36,0,0,0,0-.11c0-.19-.1-.38-.16-.57a5.08,5.08,0,0,0-.25-.75,3.64,3.64,0,0,0-.42-.63,2.92,2.92,0,0,0-.47-.46,3,3,0,0,0-1-.43,2.74,2.74,0,0,0-.64-.08,2.82,2.82,0,0,0-1.15.16h-.06c-.17.07-.35.11-.51.19a3.28,3.28,0,0,0-.94.8,3.24,3.24,0,0,0-.51.93,5.8,5.8,0,0,0-.2.63,4.85,4.85,0,0,0-.14.76c0,.15,0,.29-.07.44a.51.51,0,0,0,0,.13c0,.53,0,1.07,0,1.6C108.26,14.22,108.27,14.25,108.27,14.31Z"></path>
      <path d="M10,.05H22.77V17.51c0,.15,0,.26-.17.33a4.23,4.23,0,0,0-.41.23l-.57.34-.32.17-.57.31a.42.42,0,0,1-.15,0c-.25-.44-.49-.87-.72-1.3l-.44-.79-.69-1.21c-.15-.26-.28-.53-.43-.78s-.41-.69-.6-1-.34-.6-.51-.9-.23-.41-.34-.62-.36-.62-.53-.93-.22-.41-.34-.62-.26-.42-.38-.63L15,8.92c-.19-.34-.4-.66-.59-1-.1-.18-.18-.38-.27-.56l-.28-.47-.37-.62L13,5.53c-.12-.21-.26-.41-.38-.62s-.23-.47-.36-.69l-.67-1.16-.53-1L11,1.92l-.4-.69L10,.2A1.16,1.16,0,0,1,10,.05Z"></path>
      <path d="M12.47,11.39a7.47,7.47,0,0,0-.71-.45c-.17-.09-.36-.16-.53-.26s-.4-.13-.6-.23a2.11,2.11,0,0,0-.51-.12l-.67-.13a1.1,1.1,0,0,0-.26,0H8.41a1.47,1.47,0,0,0-.29.05l-.09,0-.63.09c-.11,0-.2.09-.32.11a1.66,1.66,0,0,0-.39.15q-.32.13-.63.3c-.11.06-.21.15-.32.2a2.9,2.9,0,0,0-.41.27,5.63,5.63,0,0,0-1.1,1,6.05,6.05,0,0,0-.55.68,7.53,7.53,0,0,0-.56.9,8.75,8.75,0,0,0-.37.83c-.08.22-.14.45-.23.66a3.16,3.16,0,0,0-.13.53c0,.22-.09.44-.14.65v.06a13.32,13.32,0,0,0-.06,1.67c0,.24,0,.47.06.7s.08.4.12.6a.9.9,0,0,1,0,.16.8.8,0,0,0,0,.15c0,.16.1.32.16.48a4.81,4.81,0,0,0,.2.53,6.68,6.68,0,0,0,.72,1.27,7.45,7.45,0,0,0,1.07,1.24c.31.28.66.53,1,.78.08.06.17.1.27.16-.07.1-.15.08-.22.08H.1a.1.1,0,0,1-.1-.11V.08C.16,0,5.23,0,5.41.08L3.27,1.28l.55,1a1.82,1.82,0,0,0,.37-.18,3.77,3.77,0,0,1,.47-.27c.25-.16.52-.3.78-.44L6.31.89c.09-.05.16-.13.28-.08L7.25,2c.11.2.2.4.32.59.21.35.41.71.6,1.07s.33.57.5.85.35.6.52.91l.38.72c.14.26.29.51.43.76l.74,1.33c.16.29.34.56.49.85s.24.46.37.69.23.36.33.54.14.27.21.4.19.33.28.49A1.43,1.43,0,0,1,12.47,11.39Z"></path>
      <path d="M4.64,14.4a2.67,2.67,0,0,1,0-.4,1.42,1.42,0,0,1,.14-.6c.07-.11.1-.25.16-.37a2.81,2.81,0,0,1,.77-.91,4.88,4.88,0,0,1,.7-.49c.21-.13.45-.23.67-.35s.43-.14.63-.23A3.09,3.09,0,0,1,8.25,11a5.21,5.21,0,0,1,.55-.08,4.87,4.87,0,0,1,.54,0c.13,0,.25.06.38.06a2.31,2.31,0,0,1,.78.16l.26.07a5.17,5.17,0,0,1,1,.42,5.11,5.11,0,0,1,1,.74,4.22,4.22,0,0,1,.81,1,6.65,6.65,0,0,1,.33.58c.1.18.22.35.33.53l.36.69c.13.22.26.43.38.65s.29.51.43.76l.55,1a1.72,1.72,0,0,1,.07.21,3.91,3.91,0,0,1,.2.9,3.81,3.81,0,0,0,.07.47.74.74,0,0,1,0,.21c0,.24-.05.48-.1.71a1.76,1.76,0,0,1-.13.5c0,.05,0,.11,0,.16a5.14,5.14,0,0,1-.39.86,2.59,2.59,0,0,0-.19.31,5.11,5.11,0,0,1-1,1.15,3.68,3.68,0,0,1-.51.37,4.15,4.15,0,0,1-.53.32c-.21.11-.43.2-.64.3a1.7,1.7,0,0,0-.24.09,2.36,2.36,0,0,1-.57.18,2.69,2.69,0,0,1-1.09.06,1.44,1.44,0,0,1-.71-.22A.78.78,0,0,0,10,24a3,3,0,0,1-.9-.72,10,10,0,0,1-.68-.78c-.17-.22-.32-.46-.47-.69s-.38-.65-.59-.95-.22-.38-.33-.56-.23-.36-.34-.54-.11-.2-.16-.3l-.55-1c-.11-.22-.22-.44-.32-.67s-.2-.4-.29-.6-.23-.53-.33-.79-.15-.43-.21-.64a5.87,5.87,0,0,1-.16-.6A6.61,6.61,0,0,1,4.64,14.4Z"></path>
      <path d="M72,23.83h1.92c.31,0,.62,0,.93,0v.58l-.2,0a.75.75,0,0,1-.15,0H66.3c-.4,0-.32,0-.32-.32,0-.1,0-.2,0-.32h2.71c0-.15,0-23,0-23.19-1,0-2,0-3,0a1.27,1.27,0,0,1,0-.59h3.48c.81,0,1.62,0,2.43,0C72,0,72,0,72,.37V23.83Z"></path>
      <path d="M22.76,18.93v5.53c-.38,0-.75,0-1.12,0H13.81s.07-.09.11-.11a4.38,4.38,0,0,0,1-.7,5.33,5.33,0,0,0,1-1.14c.12-.2.24-.4.35-.61l.27-.59a4.42,4.42,0,0,0,.15-.48c0-.18.11-.35.17-.52a.62.62,0,0,0,0-.13c0-.28,0-.56.08-.84,0,0,0,0,0-.06l.22.39L18,21.07c.05.09.12.18.17.27s.1.11.18.07l.32-.18c.4-.22.81-.43,1.2-.66l.76-.43c.28-.14.54-.33.82-.48l.7-.37.56-.34S22.71,18.94,22.76,18.93Z"></path>
      <path d="M89.78.78a1.94,1.94,0,0,1,1.94,2,2,2,0,1,1-3.91-.2A2,2,0,0,1,89.78.78Z"></path>
      <path d="M122.13,8.56a3.25,3.25,0,0,1-.13.65,1.67,1.67,0,0,1-.47.68,1.51,1.51,0,0,1-.6.34,2.37,2.37,0,0,1-.7.06,1.31,1.31,0,0,1-.64-.15,1.68,1.68,0,0,1-.76-.73,1.83,1.83,0,0,1-.17-1.13,1.49,1.49,0,0,1,.23-.65,1.47,1.47,0,0,1,.5-.49l.42-.22a.7.7,0,0,1,.14,0l.37,0c.1,0,.2,0,.3,0a1.57,1.57,0,0,1,.84.35,1.44,1.44,0,0,1,.53.69A4.56,4.56,0,0,1,122.13,8.56Zm-3.12,0a1.26,1.26,0,0,0,.28.94,1.35,1.35,0,0,0,.83.49,1.29,1.29,0,0,0,.86-.12,1.41,1.41,0,0,0,.77-1.16,1.11,1.11,0,0,0-.06-.51,1.72,1.72,0,0,0-.19-.44l-.27-.28a1.15,1.15,0,0,0-.72-.31,1.38,1.38,0,0,0-.63.09,1.43,1.43,0,0,0-.69.56A1,1,0,0,0,119,8.55Z"></path>
      <path d="M119.71,7.6a9,9,0,0,1,1,0,.43.43,0,0,1,.41.47c0,.14,0,.29-.09.41l-.16.13c-.06,0-.13.07-.21.13l.5.79a.49.49,0,0,1-.31,0s-.06,0-.08-.07l-.34-.56c0-.07-.09-.14-.14-.21H120v.84h-.32Zm.33.83.06,0c.11,0,.23,0,.34,0a.65.65,0,0,0,.24-.06.28.28,0,0,0,0-.46c-.22-.14-.45-.06-.68-.07Z"></path>
    </g>
  </g>
</svg>
