<?xml version="1.0" encoding="UTF-8"?>
<svg xmlns="http://www.w3.org/2000/svg" id="Capa_1" data-name="Capa 1" viewBox="0 0 768 300">
  <defs>
    <style>.cls-1{fill:#272828;}</style>
  </defs>
  <path d="M83.28,215.58a.49.49,0,0,1-.8.19c-4.52-3.16-9.4-5.71-14.11-8.56-2.32-1.41-4.64-2.81-7-4.12a2.37,2.37,0,0,1-1.26-2.42c0-5.36,0-10.72,0-16.08,0-27.79,0-55.58-.07-83.37,0-2.46.61-3.91,2.78-5.09Q71,91.63,79,86.74c1.1-.68,2.79-.94,3.1-2.64h.79c.15,1.1,1.16,1.3,1.89,1.74,4.12,2.45,8.28,4.84,12.4,7.29q14.82,8.81,29.63,17.66a2.7,2.7,0,0,0,3-.06q8.12-4.86,16.24-9.68,6.57-3.92,13.14-7.82c4.38-2.59,8.78-5.14,13.16-7.73.49-.29,1-.68.87-1.4h1.18c0,1.07.83,1.36,1.54,1.78q9.68,5.64,19.34,11.31c.17.1.21.43.31.66a75.05,75.05,0,0,1-7.93,4.89q-14,8.36-28,16.63C149.75,125.19,139.92,131,130,136.8a3.53,3.53,0,0,0-2.06,3.49c.07,8.75,0,17.5,0,26.25-1.86-.44-3.35-1.64-4.94-2.57-5.54-3.25-11-6.63-16.51-9.95a6.73,6.73,0,0,0-1.28-.47l-22.27-13c0,.53-.08.78-.08,1V214C82.86,214.52,82.7,215.16,83.28,215.58Z"></path>
  <path class="cls-1" d="M127.94,166.54c0-8.75.1-17.5,0-26.25A3.53,3.53,0,0,1,130,136.8c9.89-5.76,19.72-11.61,29.57-17.43q14-8.3,28-16.63a75.05,75.05,0,0,0,7.93-4.89c.41,0,.8,0,.81.52s0,1.18,0,1.77q0,49.89,0,99.79a3.84,3.84,0,0,1-2.23,4c-6.52,3.63-12.9,7.51-19.32,11.31-.5.29-.92.9-1.38,0,.05-.78.14-1.56.14-2.34q0-27.16,0-54.33c0-5.49,0-11,0-16.47,0-1.12.06-1.81-1.41-.84-2.82,1.87-5.84,3.42-8.7,5.23-4.07,2.57-8.5,4.53-12.33,7.47-2.79.91-5.07,2.76-7.57,4.2-4.77,2.73-9.45,5.59-14.21,8.34C129.06,166.67,128.46,167.73,127.94,166.54Z"></path>
  <path d="M223,144.33c0-14.07,0-28.13,0-42.19,0-1.55.26-2.15,2-2.09q6.48.2,13,0c1.49,0,1.89.57,2.09,1.83,1.29,8.45,2.59,16.89,4,25.33,1,5.86,2.13,11.68,3,17.54a97.46,97.46,0,0,1,1.54,17c0,.83-.53,2.4.7,2.4,1,0,.5-1.56.5-2.38,0-9.65,1.59-19.12,3-28.61q2.42-15.87,4.71-31.75c.14-1,.5-1.31,1.49-1.3q7.26.08,14.52,0c1.14,0,1.57.35,1.41,1.45a5.8,5.8,0,0,0,0,.59q0,42.27,0,84.56c0,1.77-.46,2.24-2.17,2.13a58.32,58.32,0,0,0-6.87,0c-1.37.06-1.76-.34-1.75-1.73.06-11.58,0-23.15,0-34.73,0-9.15,0-18.31,0-27.46,0-2.48.17-5,.22-7.45,0-.45.38-1.19-.39-1.29-.94-.12-.69.73-.75,1.25-1.14,10.45-2.55,20.86-4,31.27s-2.85,20.95-4.29,31.43c-.35,2.58-.77,5.16-1.11,7.75-.09.62-.28.94-.95.93-2.68,0-5.37,0-8.05,0-1,0-1-.59-1.07-1.25q-1.18-8.24-2.39-16.47c-1.06-7.16-2.27-14.31-3.16-21.5-1.24-10.17-3.12-20.27-3.68-30.52-.06-1,.29-2.89-.83-2.78-1.32.12-.35,1.83-.32,2.77.69,22.75.17,45.51.36,68.27,0,1.26-.4,1.53-1.56,1.49-2.35-.08-4.72-.13-7.06,0-1.67.1-2.19-.31-2.18-2.1C223,172.58,222.94,158.45,223,144.33Z"></path>
  <path d="M450.08,145.57c.15-9.84-.33-19.32.33-28.78.74-10.68,7.27-16.81,17.9-17.44,5.54-.33,10.6,1.07,14.49,5.39a15.8,15.8,0,0,1,3.71,7.62,52.9,52.9,0,0,1,.91,10.52c0,15.75,0,31.51-.11,47.26a24.21,24.21,0,0,1-2.74,12.06c-2,3.49-5,5.27-8.69,6.44-1,.33-2.82-.36-2.77,1.83.05,2.77.94,4.38,2.89,5a17.76,17.76,0,0,0,6.81.26c1.41-.14,1.68.33,1.65,1.57-.07,2.55-.06,5.1,0,7.64,0,1-.15,1.55-1.37,1.53-3.71-.08-7.42.06-11.1-.86a10.13,10.13,0,0,1-7.89-8,26,26,0,0,1-1.14-7.33c.05-.95-.34-1.37-1.25-1.63-7.33-2.06-10.82-7.12-11.34-14.61C449.71,164.43,450.28,154.81,450.08,145.57Zm11.6-.77v27a11.49,11.49,0,0,0,.5,3.86c1,3,2.62,4.21,5.73,4.37,3.56.18,6-1,7.1-3.69a17.39,17.39,0,0,0,.83-6.57q.07-25.48,0-51a24.42,24.42,0,0,0-.48-4.67,5.38,5.38,0,0,0-3.28-4.07c-5.29-2.28-10.36,1-10.4,6.86C461.64,126.24,461.68,135.52,461.68,144.8Z"></path>
  <path d="M389.5,157.21c3.51,1,6.25,2.75,7.31,6.39a15,15,0,0,1,.47,4.27c0,4.77,0,9.55.06,14.32a10.42,10.42,0,0,0,2,6.2c-.24.61-.78.35-1.17.36-3.14,0-6.29,0-9.42,0-1.11,0-1.53-.36-2-1.36a14.27,14.27,0,0,1-1-5.93c0-4.84,0-9.68,0-14.52,0-3.84-1.07-5.08-4.84-5.5-1.61-.19-3.27,0-4.89-.13-1.39-.11-1.77.39-1.76,1.76.06,7.78,0,15.56.08,23.34,0,1.84-.33,2.52-2.31,2.36a72.29,72.29,0,0,0-7.65,0c-1.09,0-1.57-.28-1.46-1.42a23.2,23.2,0,0,0,0-2.36q0-28.14,0-56.3c0-1.57.31-2.12,2-2.1,7.65.11,15.31,0,23,.13a8.75,8.75,0,0,1,7.9,4.62,10.43,10.43,0,0,1,1,4.75,85,85,0,0,1-.18,14.09,6.72,6.72,0,0,1-5.73,6.28,4.79,4.79,0,0,0-.93.29C389.84,156.83,389.72,157,389.5,157.21ZM374.31,144v2.54c0,6.85,0,6.85,6.91,6.1a5.19,5.19,0,0,0,.77-.14c2.36-.61,3.52-1.79,3.63-4.19a82.43,82.43,0,0,0,0-8.61c-.16-2.9-1.65-4.15-4.57-4.19-1.76,0-3.53,0-5.29,0-1.11-.05-1.49.34-1.46,1.46C374.36,139.24,374.31,141.6,374.31,144Z"></path>
  <path d="M606.8,157.11c6,2.27,7.92,5,8,11.15,0,3.86,0,7.72,0,11.57,0,3,.17,6,2.1,8.92H605.54c-1.11,0-1.4-.93-1.59-1.71a22.78,22.78,0,0,1-.86-5.59c.06-4.44,0-8.89,0-13.34a25.77,25.77,0,0,0-.34-3.49,3.36,3.36,0,0,0-3-3,43.58,43.58,0,0,0-7-.32c-1.42,0-1.13,1-1.13,1.75q0,11,0,22c0,3.7,0,3.7-3.65,3.7-2.09,0-4.19-.06-6.28,0-1.12.05-1.46-.33-1.44-1.42.06-3.27,0-6.54,0-9.81,0-16.27,0-32.55-.06-48.83,0-1.75.49-2.14,2.17-2.12,7.26.1,14.52,0,21.77.05,3.34,0,6.32.9,8.34,3.77a8.89,8.89,0,0,1,1.66,4.73c.21,4.44.13,8.88.09,13.33,0,4-2,7.39-6.38,8.09A4.57,4.57,0,0,0,606.8,157.11Zm-15.26-13.05c0,2.41,0,4.82,0,7.23,0,1,.3,1.38,1.33,1.34,1.89-.07,3.79.05,5.68,0,2.84-.15,4.2-1.5,4.27-4.27q.11-4.41,0-8.8c-.07-2.87-1.29-4-4.11-4.07-1.82,0-3.65.06-5.47,0-1.24-.06-1.76.26-1.71,1.6C591.6,139.36,591.54,141.71,591.54,144.06Z"></path>
  <path d="M440.2,157.93c0,6.79.06,13.59,0,20.38-.07,5.33-3.6,9.28-8.69,10.73a30.2,30.2,0,0,1-16.65-.09c-5.38-1.53-8.3-5.55-8.79-11.56-.05-.65-.07-1.3-.07-2,0-11.76,0-23.52,0-35.28,0-6,2-10.74,7.84-13.15a25.91,25.91,0,0,1,12.52-1.49,17.46,17.46,0,0,1,10.75,4.5,9.46,9.46,0,0,1,2.85,5.4,29,29,0,0,1,.38,5.27q0,8.63,0,17.25Zm-11.31-.18h-.09c0-6,0-12,0-18a6.06,6.06,0,0,0-1.15-4.06c-1.87-2.18-4.36-1.84-6.72-1.35-1.9.39-2.88,1.9-3.18,3.8a20.49,20.49,0,0,0-.35,2.9q0,16.85,0,33.69a8,8,0,0,0,1,4.34c1.09,1.72,4,2.64,6.31,2.06s3.73-1.76,3.94-4.2c.09-1.1.26-2.2.27-3.3C428.91,168.33,428.89,163,428.89,157.75Z"></path>
  <path d="M497.27,152.28c0-7.84,0-15.69,0-23.54,0-1.56.31-2.2,2-2.09a71.21,71.21,0,0,0,7.45,0c1.53-.08,2,.36,1.95,1.92-.06,14.32,0,28.65,0,43a35,35,0,0,0,.26,4.69c.38,2.79,2.4,4.27,5.43,4.17s4.71-1.66,4.82-4.54c.14-4.05.12-8.1.12-12.16,0-11.7,0-23.41,0-35.11,0-1.59.45-2,2-1.94,2.74.12,5.5.08,8.24,0,1.11,0,1.44.32,1.44,1.43,0,15.89.06,31.78-.07,47.67,0,5.35-1.83,10.18-7.15,12.48a24.1,24.1,0,0,1-14.21,1.44c-3.41-.64-6.57-1.66-8.88-4.44a15.34,15.34,0,0,1-3.29-10.2V152.28Z"></path>
  <path class="cls-1" d="M83.28,215.58c-.58-.42-.42-1.06-.42-1.62V141.61c0-.26,0-.51.08-1l22.27,13c0,15.21-.09,30.43.1,45.64,0,2.8-1,4.15-3.23,5.39C95.77,208.17,89.54,211.9,83.28,215.58Z"></path>
  <path d="M151.18,153.94c3.83-2.94,8.26-4.9,12.33-7.47,2.86-1.81,5.88-3.36,8.7-5.23,1.47-1,1.41-.28,1.41.84,0,5.49,0,11,0,16.47q0,27.16,0,54.33c0,.78-.09,1.56-.14,2.34-3.57-1.24-6.45-3.74-9.76-5.47-3.72-1.94-7.21-4.35-10.87-6.42a2.94,2.94,0,0,1-1.68-3C151.2,184.89,151.18,169.42,151.18,153.94Z"></path>
  <path d="M568,188.76c-1.5,0-3,0-4.51,0-1,0-1.39-.34-1.51-1.31-.31-2.46-.76-4.9-1-7.36-.13-1.14-.58-1.54-1.74-1.5-2.62.07-5.24,0-7.85,0-1,0-1.36.34-1.49,1.32-.34,2.59-.85,5.15-1.18,7.74-.1.84-.38,1.11-1.2,1.1-3.07,0-6.15-.06-9.22,0-1.19,0-1.05-.61-.91-1.35q1.47-7.68,2.94-15.36c1.34-7,2.66-14.08,4-21.12.85-4.48,1.74-9,2.63-13.43.63-3.2,1.34-6.38,1.91-9.59.17-1,.49-1.29,1.48-1.27,3.59,0,7.19,0,10.79,0,.88,0,1.16.26,1.33,1.18,1.86,10,3.83,20,5.68,30,1.59,8.52,3.06,17.06,4.61,25.59.25,1.41.58,2.81.92,4.2.21.86,0,1.19-.93,1.16C571.09,188.72,569.52,188.76,568,188.76Zm-12.13-44.24c-.67.13-.62.67-.68,1.09-1.19,7.51-2.35,15-3.54,22.55-.15.93.35,1,1,.94,1.76,0,3.53-.08,5.28,0,1.19.06,1.36-.39,1.31-1.47-.15-3.07-.94-6-1.31-9.08A118.46,118.46,0,0,0,555.82,144.52Z"></path>
  <path d="M285.83,157.58c0-9.68,0-19.36,0-29,0-1.54.42-1.94,1.94-1.93q13.14.11,26.3,0c1.49,0,1.91.39,1.81,1.85a46.15,46.15,0,0,0,0,5.88c.09,1.44-.47,1.72-1.79,1.7-5-.06-9.94,0-14.91,0-1.37,0-2,.19-1.91,1.77.13,3.79.09,7.59,0,11.38,0,1.19.29,1.56,1.53,1.54,4.64-.08,9.29,0,13.93-.08,1.7,0,2.12.49,2,2.08a48.07,48.07,0,0,0,0,5.88c.07,1.26-.4,1.52-1.57,1.51-4.77-.06-9.55,0-14.33,0-1.17,0-1.57.23-1.56,1.49q.12,8,0,16.09c0,1.3.37,1.65,1.65,1.64,5.3-.07,10.6,0,15.9-.06,1.4,0,2,.23,1.89,1.79a57,57,0,0,0,0,6.27c.06,1.2-.29,1.55-1.52,1.54q-13.83-.07-27.67,0c-1.46,0-1.68-.49-1.67-1.79C285.86,177.2,285.83,167.39,285.83,157.58Z"></path>
  <path d="M673.53,188.76c-4.71,0-9.42-.06-14.12,0-1.47,0-1.86-.32-2-1.89-.64-5.57,2.19-10.07,4.21-14.8,3.71-8.67,7.57-17.27,11.35-25.91,1.2-2.73,2.25-5.52,3.56-8.2.7-1.45.66-1.88-1.09-1.84-4.64.09-9.29,0-13.93.06-1.22,0-1.58-.31-1.53-1.53.09-2.15.08-4.31,0-6.47,0-1.14.23-1.57,1.5-1.56q13.63.09,27.27,0c1.09,0,1.33.31,1.48,1.42.61,4.3-1.39,7.88-3,11.55-3.73,8.65-7.59,17.25-11.4,25.87-1.7,3.86-3.38,7.74-5.09,11.6-.79,1.75-.59,2.06,1.43,2.06,5.24,0,10.47.06,15.7-.06,1.7,0,2.11.53,2,2.11a46.14,46.14,0,0,0,0,5.88c.08,1.41-.47,1.72-1.79,1.7C683.21,188.71,678.37,188.76,673.53,188.76Z"></path>
  <path d="M345.24,162.27c0,8.24,0,16.47,0,24.71,0,1.49-.38,1.88-1.84,1.81a75.93,75.93,0,0,0-7.84,0c-1.63.09-1.89-.51-1.88-2,.05-16.34,0-32.69.06-49,0-1.7-.29-2.46-2.22-2.32-2.6.19-5.23,0-7.84.07-1.22,0-1.6-.37-1.55-1.57q.12-2.94,0-5.88c-.05-1.15.38-1.43,1.47-1.43q15.89.06,31.78,0c1.07,0,1.33.38,1.3,1.36-.06,2-.07,4,0,6.08,0,1.1-.31,1.47-1.43,1.44-2.81-.07-5.63,0-8.44,0-1.29,0-1.64.39-1.63,1.68C345.26,145.53,345.24,153.9,345.24,162.27Z"></path>
  <path d="M642.81,162.16c0,8.3,0,16.6,0,24.89,0,1.36-.3,1.81-1.7,1.74-2.68-.11-5.37-.12-8,0-1.49.07-1.83-.39-1.83-1.84.06-16.4,0-32.81.08-49.21,0-1.78-.43-2.39-2.26-2.27-2.54.16-5.1,0-7.65.06-1.13,0-1.66-.24-1.6-1.51a57.47,57.47,0,0,0,0-5.87c-.07-1.29.45-1.5,1.59-1.5q15.6.06,31.19,0c1.27,0,1.7.34,1.63,1.62a32.22,32.22,0,0,0,0,5.29c.17,1.76-.56,2.05-2.1,2-2.54-.12-5.1,0-7.65-.07-1.39,0-1.74.43-1.73,1.78C642.84,145.56,642.81,153.86,642.81,162.16Z"></path>
  <path d="M708,114.58l0,9c-1.08.13-.91-.65-.91-1.27,0-1.61,0-3.22,0-4.83l-.53-.11c-.59,1.63-1.14,3.28-1.77,4.89-.21.54,0,1.43-1,1.44s-.86-1-1.08-1.57a26.35,26.35,0,0,0-2.25-5c0,1.82,0,3.65,0,5.47,0,.43.17,1-.51,1.08-.87.06-.62-.66-.63-1.12,0-2.28,0-4.57,0-6.85,0-.56-.17-1.21.78-1.24a1.11,1.11,0,0,1,1.36,1c.61,2.09,1.39,4.12,2.3,6.76.84-2.42,1.57-4.25,2.09-6.15C706.14,114.8,706.64,114.17,708,114.58Z"></path>
  <path d="M694,114.46c1,0,2,0,2.93,0,.37,0,.84-.07.83.52,0,.43-.38.53-.69.46-2.86-.61-2.58,1.29-2.52,3.08,0,1.23,0,2.47,0,3.7,0,.52.33,1.37-.54,1.42s-.56-.85-.57-1.33c-.06-1.69-.1-3.38,0-5.07.07-1.3-.25-2-1.69-1.82-.48,0-1.44.4-1.44-.43,0-1,1-.43,1.56-.51a17,17,0,0,1,2.14,0Z"></path>
</svg>
