<?xml version="1.0" encoding="UTF-8"?>
<svg xmlns="http://www.w3.org/2000/svg" viewBox="0 0 81.61 45.76">
  <g id="Capa_2" data-name="Capa 2">
    <g id="Capa_1-2" data-name="Capa 1">
      <path d="M.52,40.81l1.4,3.37,1.42-3.37h.43v3.82H3.44V43l0-1.71L2.05,44.63H1.8L.39,41.28.41,43v1.67H.09V40.81H.52m6,3.82a1.34,1.34,0,0,1-.06-.4,1.06,1.06,0,0,1-.43.33,1.25,1.25,0,0,1-.54.12,1,1,0,0,1-.66-.23.72.72,0,0,1-.25-.57.76.76,0,0,1,.34-.66,1.64,1.64,0,0,1,1-.24h.57v-.32a.64.64,0,0,0-.18-.48A.74.74,0,0,0,5.68,42a.84.84,0,0,0-.54.16.5.5,0,0,0-.22.41H4.61A.71.71,0,0,1,4.92,42a1.21,1.21,0,0,1,.77-.25,1.13,1.13,0,0,1,.75.24.84.84,0,0,1,.28.66V44a1.64,1.64,0,0,0,.09.62v0H6.48m-1-.23a1,1,0,0,0,.56-.15.85.85,0,0,0,.36-.41v-.62H5.85a1.43,1.43,0,0,0-.73.17.52.52,0,0,0-.27.46.55.55,0,0,0,.18.4.69.69,0,0,0,.46.15Zm2.77-1.2-.36.35v1.08H7.59v-4H7.9v2.58l.3-.32,1.08-1.07h.4L8.47,43l1.31,1.64H9.41L8.26,43.2m2-2.23a.22.22,0,0,1,.06-.15.23.23,0,0,1,.16-.06.25.25,0,0,1,.16.06.22.22,0,0,1,.06.15.21.21,0,0,1-.22.21.19.19,0,0,1-.16-.06.2.2,0,0,1-.06-.15m.06.82h.31v2.84h-.31Zm1.49,0v.49a1.1,1.1,0,0,1,.4-.4,1.07,1.07,0,0,1,.52-.14.85.85,0,0,1,.68.26,1.12,1.12,0,0,1,.23.77v1.86H13.3V42.77a.93.93,0,0,0-.16-.57.65.65,0,0,0-.51-.19.83.83,0,0,0-.52.19,1,1,0,0,0-.33.49v1.94h-.31V41.79h.3m2.55,1.39a1.71,1.71,0,0,1,.29-1,1,1,0,0,1,.8-.39,1,1,0,0,1,.88.46l0-.41h.29v2.78a1.2,1.2,0,0,1-.3.87,1.11,1.11,0,0,1-.83.32,1.4,1.4,0,0,1-.57-.13,1.12,1.12,0,0,1-.42-.36l.17-.19a1,1,0,0,0,.8.41.78.78,0,0,0,.61-.23,1,1,0,0,0,.23-.64v-.36a1,1,0,0,1-.88.42.94.94,0,0,1-.79-.39,1.68,1.68,0,0,1-.3-1.06v0m.32.06a1.53,1.53,0,0,0,.21.86.72.72,0,0,0,.62.31.85.85,0,0,0,.82-.52V42.57a.94.94,0,0,0-.32-.41.89.89,0,0,0-.5-.15.7.7,0,0,0-.61.31,1.5,1.5,0,0,0-.22.92Zm4.21,1.39V40.81h1.07a1.67,1.67,0,0,1,.84.22,1.42,1.42,0,0,1,.58.61,2,2,0,0,1,.21.91v.35a2,2,0,0,1-.21.9,1.42,1.42,0,0,1-.58.61,1.72,1.72,0,0,1-.86.22h-1m.33-3.54v3.27h.72a1.28,1.28,0,0,0,1-.4,1.56,1.56,0,0,0,.37-1.09v-.33a1.52,1.52,0,0,0-.36-1.06,1.21,1.21,0,0,0-.95-.39Zm4.45,1-.21,0a.82.82,0,0,0-.5.17.89.89,0,0,0-.29.47v2h-.31V41.79h.31v.45a.86.86,0,0,1,.8-.5.52.52,0,0,1,.21,0v.28m1.57,2.62a1.22,1.22,0,0,1-.65-.18,1.2,1.2,0,0,1-.46-.49,1.52,1.52,0,0,1-.16-.72v-.11a1.6,1.6,0,0,1,.16-.74,1.21,1.21,0,0,1,.44-.51,1.1,1.1,0,0,1,.61-.19,1.05,1.05,0,0,1,.82.35,1.47,1.47,0,0,1,.3,1v.17h-2v.06a1.2,1.2,0,0,0,.28.81.9.9,0,0,0,.69.32,1,1,0,0,0,.45-.1A1.07,1.07,0,0,0,26,44l.19.15a1.13,1.13,0,0,1-1,.5M25.14,42a.74.74,0,0,0-.59.26,1.14,1.14,0,0,0-.3.69H26v0a1,1,0,0,0-.23-.66.72.72,0,0,0-.58-.26Zm3.55,2.62a1.34,1.34,0,0,1-.06-.4,1,1,0,0,1-.42.33,1.29,1.29,0,0,1-.54.12.94.94,0,0,1-.66-.23.73.73,0,0,1-.26-.57.79.79,0,0,1,.35-.66,1.62,1.62,0,0,1,1-.24h.57v-.32a.61.61,0,0,0-.19-.48.73.73,0,0,0-.55-.17.88.88,0,0,0-.54.16.52.52,0,0,0-.21.41h-.32a.72.72,0,0,1,.32-.58,1.19,1.19,0,0,1,.77-.25,1.14,1.14,0,0,1,.75.24.87.87,0,0,1,.28.66V44a1.86,1.86,0,0,0,.08.62v0h-.33m-1-.23a1,1,0,0,0,.57-.15.9.9,0,0,0,.36-.41v-.62h-.56a1.47,1.47,0,0,0-.74.17.53.53,0,0,0-.26.46.51.51,0,0,0,.17.4.71.71,0,0,0,.46.15Zm2.39-2.61v.46a1,1,0,0,1,.39-.38,1.06,1.06,0,0,1,.52-.13.81.81,0,0,1,.86.55,1.05,1.05,0,0,1,.4-.41,1.22,1.22,0,0,1,.56-.14c.61,0,.92.33.93,1v1.89h-.31V42.76a.86.86,0,0,0-.17-.56.64.64,0,0,0-.52-.19.85.85,0,0,0-.57.22.75.75,0,0,0-.26.52v1.88h-.32V42.74a.74.74,0,0,0-.17-.55.71.71,0,0,0-.52-.18.87.87,0,0,0-.51.17,1,1,0,0,0-.31.5v2h-.31V41.79h.3m8.06,1.9a.64.64,0,0,0-.23-.5,2.17,2.17,0,0,0-.81-.35,2.79,2.79,0,0,1-.87-.37A.88.88,0,0,1,36,41.25a.7.7,0,0,1,.21-.21,1.43,1.43,0,0,1,.92-.28,1.6,1.6,0,0,1,.68.15,1.11,1.11,0,0,1,.63,1h-.33a.82.82,0,0,0-.26-.63,1.12,1.12,0,0,0-.72-.24,1.17,1.17,0,0,0-.7.2.62.62,0,0,0-.26.51.6.6,0,0,0,.23.48,2.27,2.27,0,0,0,.75.32,3.19,3.19,0,0,1,.78.29,1.06,1.06,0,0,1,.4.36.86.86,0,0,1,.13.49.87.87,0,0,1-.36.73,1.53,1.53,0,0,1-1,.27,2.11,2.11,0,0,1-.74-.14,1.27,1.27,0,0,1-.51-.41,1,1,0,0,1-.17-.59h.32a.74.74,0,0,0,.3.63,1.28,1.28,0,0,0,.8.24,1.25,1.25,0,0,0,.72-.2.63.63,0,0,0,.27-.52m2.79.58a1,1,0,0,1-.9.41.88.88,0,0,1-.69-.26,1.15,1.15,0,0,1-.24-.78V41.79h.31V43.6c0,.54.22.81.65.81a.81.81,0,0,0,.87-.57V41.79h.31v2.84H41v-.36m2.46-2.21-.21,0a.84.84,0,0,0-.5.17,1,1,0,0,0-.29.47v2h-.31V41.79h.31v.45a.86.86,0,0,1,.8-.5.52.52,0,0,1,.21,0v.28m.79,2.57V42.05h-.47v-.26h.47v-.34a.92.92,0,0,1,.22-.67.83.83,0,0,1,.62-.23,1.24,1.24,0,0,1,.33,0l0,.26a1.43,1.43,0,0,0-.29,0,.5.5,0,0,0-.4.16.66.66,0,0,0-.15.46v.35h.68v.26H44.5v2.58h-.31m3.37,0a1.34,1.34,0,0,1-.06-.4,1,1,0,0,1-.42.33,1.3,1.3,0,0,1-.55.12,1,1,0,0,1-.66-.23A.79.79,0,0,1,46,43.22a1.65,1.65,0,0,1,1-.24h.56v-.32a.64.64,0,0,0-.18-.48.74.74,0,0,0-.55-.17.86.86,0,0,0-.54.16.56.56,0,0,0-.22.41h-.31A.71.71,0,0,1,46,42a1.21,1.21,0,0,1,.78-.25,1.1,1.1,0,0,1,.74.24.88.88,0,0,1,.29.66V44a1.63,1.63,0,0,0,.08.62v0h-.33m-1-.23a1,1,0,0,0,.56-.15.85.85,0,0,0,.36-.41v-.62h-.56a1.43,1.43,0,0,0-.73.17.49.49,0,0,0-.26.46.51.51,0,0,0,.17.4.69.69,0,0,0,.46.15Zm3.15,0a.81.81,0,0,0,.54-.19.61.61,0,0,0,.24-.48h.31a.93.93,0,0,1-.17.48,1,1,0,0,1-.39.33,1.24,1.24,0,0,1-.53.12,1.09,1.09,0,0,1-.89-.39,1.54,1.54,0,0,1-.32-1v-.09a1.68,1.68,0,0,1,.14-.74,1.14,1.14,0,0,1,.42-.5,1.21,1.21,0,0,1,.64-.18,1.08,1.08,0,0,1,.77.28,1,1,0,0,1,.33.73H50.5a.75.75,0,0,0-.77-.74h0a.79.79,0,0,0-.66.31,1.36,1.36,0,0,0-.23.86v.09a1.31,1.31,0,0,0,.23.84.8.8,0,0,0,.67.31m2.84.26a1.28,1.28,0,0,1-.66-.18,1.25,1.25,0,0,1-.45-.49,1.52,1.52,0,0,1-.16-.72v-.11a1.72,1.72,0,0,1,.15-.74,1.23,1.23,0,0,1,.45-.51,1.1,1.1,0,0,1,.61-.19,1.07,1.07,0,0,1,.82.35,1.47,1.47,0,0,1,.3,1v.17h-2v.06a1.24,1.24,0,0,0,.27.81.93.93,0,0,0,.7.32,1,1,0,0,0,.44-.1.9.9,0,0,0,.35-.29l.2.15a1.13,1.13,0,0,1-1,.5M52.5,42a.76.76,0,0,0-.6.26,1.19,1.19,0,0,0-.29.69h1.7v0a1,1,0,0,0-.23-.66A.73.73,0,0,0,52.5,42ZM56,43.91a.44.44,0,0,0-.18-.38,1.47,1.47,0,0,0-.57-.22,2.79,2.79,0,0,1-.58-.18.79.79,0,0,1-.31-.26.56.56,0,0,1-.1-.36.67.67,0,0,1,.28-.55,1.16,1.16,0,0,1,.72-.22A1.22,1.22,0,0,1,56,42a.77.77,0,0,1,.28.62h-.31a.53.53,0,0,0-.21-.42.92.92,0,0,0-1,0,.42.42,0,0,0-.19.35.38.38,0,0,0,.16.33,1.65,1.65,0,0,0,.57.22,2.57,2.57,0,0,1,.61.2A.71.71,0,0,1,56,44.47a1.47,1.47,0,0,1-1.56,0,.77.77,0,0,1-.31-.61h.32a.52.52,0,0,0,.23.43,1,1,0,0,0,1.09,0,.42.42,0,0,0,.21-.36m4.5-.35H58.73l-.39,1.07H58l1.45-3.82h.3l1.45,3.82h-.34l-.4-1.07m-1.63-.28h1.53l-.76-2.07Zm3.32-2.21v.72h.59v.26h-.59v1.89a.54.54,0,0,0,.09.35.31.31,0,0,0,.28.12,1.15,1.15,0,0,0,.26,0v.26a1.27,1.27,0,0,1-.34,0,.54.54,0,0,1-.47-.19.87.87,0,0,1-.14-.55V42.05h-.52v-.26h.52v-.72h.31m1.75,0v.72h.59v.26H63.9v1.89a.54.54,0,0,0,.09.35.31.31,0,0,0,.28.12,1.15,1.15,0,0,0,.26,0v.26a1.27,1.27,0,0,1-.34,0,.52.52,0,0,1-.46-.19.88.88,0,0,1-.15-.55V42.05h-.52v-.26h.52v-.72h.31M67,44.63a1.34,1.34,0,0,1-.06-.4,1,1,0,0,1-.42.33,1.3,1.3,0,0,1-.55.12,1,1,0,0,1-.66-.23.72.72,0,0,1-.25-.57.76.76,0,0,1,.34-.66,1.64,1.64,0,0,1,1-.24h.57v-.32a.64.64,0,0,0-.18-.48.74.74,0,0,0-.55-.17.84.84,0,0,0-.54.16.5.5,0,0,0-.22.41h-.31A.71.71,0,0,1,65.4,42a1.21,1.21,0,0,1,.78-.25,1.1,1.1,0,0,1,.74.24.88.88,0,0,1,.29.66V44a1.46,1.46,0,0,0,.08.62v0H67m-1-.23a1,1,0,0,0,.56-.15.85.85,0,0,0,.36-.41v-.62h-.56a1.43,1.43,0,0,0-.73.17.52.52,0,0,0-.27.46.55.55,0,0,0,.18.4.69.69,0,0,0,.46.15ZM68.05,41a.24.24,0,0,1,.06-.15.2.2,0,0,1,.15-.06.23.23,0,0,1,.16.06.22.22,0,0,1,.06.15.2.2,0,0,1-.06.15.19.19,0,0,1-.16.06.19.19,0,0,1-.21-.19v0m0,.82h.32v2.84H68.1Zm1.5,0v.49a1.07,1.07,0,0,1,.39-.4,1.1,1.1,0,0,1,.53-.14.87.87,0,0,1,.68.26,1.16,1.16,0,0,1,.22.77v1.86h-.31V42.77A.82.82,0,0,0,71,42.2a.63.63,0,0,0-.5-.19.81.81,0,0,0-.52.19,1,1,0,0,0-.33.49v1.94H69.3V41.79h.3m4.46,2.84a1.34,1.34,0,0,1-.06-.4,1,1,0,0,1-.42.33,1.25,1.25,0,0,1-.54.12.94.94,0,0,1-.66-.23.73.73,0,0,1-.26-.57.79.79,0,0,1,.35-.66,1.62,1.62,0,0,1,1-.24H74v-.32a.63.63,0,0,0-.19-.48.73.73,0,0,0-.55-.17.88.88,0,0,0-.54.16.52.52,0,0,0-.21.41h-.32a.72.72,0,0,1,.32-.58,1.19,1.19,0,0,1,.77-.25A1.13,1.13,0,0,1,74,42a.84.84,0,0,1,.28.66V44a1.64,1.64,0,0,0,.09.62v0h-.34m-1-.23a1,1,0,0,0,.56-.15.9.9,0,0,0,.36-.41v-.62h-.56a1.47,1.47,0,0,0-.74.17.53.53,0,0,0-.26.46.52.52,0,0,0,.18.4.67.67,0,0,0,.46.15Zm4.37-1.16a1.71,1.71,0,0,1-.29,1,.94.94,0,0,1-.79.39,1,1,0,0,1-.89-.44l0,.39h-.29v-4h.31v1.6a1,1,0,0,1,.89-.46.94.94,0,0,1,.79.38,1.7,1.7,0,0,1,.29,1.07v.05m-.31-.06a1.46,1.46,0,0,0-.22-.86.71.71,0,0,0-.61-.31.92.92,0,0,0-.51.15.91.91,0,0,0-.32.43v1.28a.85.85,0,0,0,.83.54.71.71,0,0,0,.61-.31,1.54,1.54,0,0,0,.22-.92Zm1.07-2.58h.31v4h-.31Zm2.29,4.08a1.22,1.22,0,0,1-.65-.18,1.2,1.2,0,0,1-.46-.49,1.52,1.52,0,0,1-.16-.72v-.11a1.6,1.6,0,0,1,.16-.74,1.21,1.21,0,0,1,.44-.51,1.1,1.1,0,0,1,.61-.19,1.05,1.05,0,0,1,.82.35,1.47,1.47,0,0,1,.3,1v.17h-2v.06a1.2,1.2,0,0,0,.28.81.9.9,0,0,0,.69.32,1,1,0,0,0,.45-.1,1.07,1.07,0,0,0,.35-.29l.19.15a1.13,1.13,0,0,1-1,.5M80.44,42a.74.74,0,0,0-.59.26,1.14,1.14,0,0,0-.3.69h1.7v0a1,1,0,0,0-.23-.66A.72.72,0,0,0,80.44,42ZM49.08,31.12a10.31,10.31,0,0,1-5.37-8.43s0-.07,0-.1V33.94C46,31.68,48.55,31.75,51,32.09c-.42-.17-.83-.36-1.24-.57-.24-.13-.48-.26-.71-.4m-43-6.06V9.63l-1-2.35V25C5,30.43,3.48,32.14,0,33H11.11c-3.47-.88-4.94-2.57-5-8M40.14,1.22H30.37L22.3,22.82,13.14,1.22H3.1C4.87,1.58,6,2.26,7,4.8L18.59,33.28h.83L30.56,3.46V29.24c0,2.68-.73,3.41-2.5,3.77H40.14c-1.77-.32-2.5-1.09-2.5-3.77V6.8c0-4.18.36-5.08,2.5-5.58M65.55,11.35V0c-2.44,2.44-5,2.16-7.72,1.76,4.72,1,7.38,6.36,7.72,9.59M79.11,29.06V6.76c0-4.09.36-5,2.5-5.54H69.53c1.81.4,2.49,1.18,2.49,4V27.47c0,4.09-.31,5.09-2.49,5.54H81.61c-1.77-.32-2.5-1.14-2.5-3.95M60.39,15.63l-7.7-4.28c-2.53-1.34-4-3.88-3.32-6.28s3.1-3.88,5.92-3.82C49.92.66,45,3.32,43.85,7.77c-1.1,4.15,1.4,8.56,5.78,10.87l7.71,4.27c2.52,1.35,3.95,3.89,3.32,6.29s-3.1,3.87-5.93,3.82C60.1,33.61,65,31,66.17,26.5c1.1-4.16-1.39-8.57-5.78-10.87"></path>
    </g>
  </g>
</svg>
