<?xml version="1.0" encoding="UTF-8"?>
<svg xmlns="http://www.w3.org/2000/svg" viewBox="0 0 120.89 56.09">
  <g id="Capa_2" data-name="Capa 2">
    <g id="Capa_1-2" data-name="Capa 1">
      <path d="M74.15,18.49H71.67v3.76c0,1.16-.57,1.65-1.33,1.65s-1.29-.49-1.29-1.52V18.49H66.57V22.7c0,2,1.38,3.18,3.84,3.18s3.74-1.31,3.74-3.44v-4m-10.54,7.8a12.21,12.21,0,0,1-2.35-1,3.45,3.45,0,0,0,1.82-3.12,3.67,3.67,0,0,0-4-3.78,3.61,3.61,0,0,0-3.91,3.71c0,1.65.91,3,2.71,4a21,21,0,0,0,4.1,1.7l1.62-1.54m-6-4.11a1.48,1.48,0,1,1,2.94,0,1.45,1.45,0,0,1-1.46,1.62,1.48,1.48,0,0,1-1.48-1.6M55.32,10.32V16h1.37V13.71h1.09a1.7,1.7,0,1,0,0-3.39H55.32m1.37,1h.48c.74,0,1,.17,1,.65s-.22.66-.85.66h-.64Zm4.6.79H60.13V16h1.16V14.33c.26-.71.53-1.12,1-1.12a1.27,1.27,0,0,1,.69.28l.32-1.06a1.22,1.22,0,0,0-.77-.35c-.45,0-.84.37-1.18,1.17h0Zm6,2.64a2.13,2.13,0,0,1-1.38.55,1.1,1.1,0,0,1-1.22-1.08h2.66a1.94,1.94,0,1,0-3.87-.18,1.94,1.94,0,0,0,2.15,2,2.65,2.65,0,0,0,1.66-.5Zm-2.57-1.16a.79.79,0,0,1,.8-.84.82.82,0,0,1,.81.84Zm4.42-1.48H68V16h1.16V13.41a1.23,1.23,0,0,1,.89-.53c.35,0,.71.21.71.83V16h1.17V13.53a1.13,1.13,0,0,1,.92-.64c.42,0,.68.3.68.85V16h1.17V13.52a1.38,1.38,0,0,0-1.31-1.44h-.14a1.85,1.85,0,0,0-1.47.81,1.33,1.33,0,0,0-1.33-.81,1.7,1.7,0,0,0-.67.13,2.26,2.26,0,0,0-.62.44ZM75.39,16h1.16V12.15H75.39ZM76,10.25a.67.67,0,0,0-.69.64.66.66,0,0,0,.65.68.65.65,0,0,0,.68-.64v0a.64.64,0,0,0-.64-.66M79.78,16H81V12.15H79.78v2.44a.9.9,0,0,1-.8.66c-.31,0-.59-.19-.59-.73V12.15H77.23V14.6a1.3,1.3,0,0,0,1.35,1.45,1.46,1.46,0,0,0,1.2-.62Zm3-3.83H81.62V16h1.16V13.41a1.23,1.23,0,0,1,.9-.53c.34,0,.7.21.7.83V16h1.17V13.53a1.15,1.15,0,0,1,.92-.64c.42,0,.68.3.68.85V16h1.17V13.52A1.38,1.38,0,0,0,87,12.08h-.14a1.83,1.83,0,0,0-1.46.81,1.36,1.36,0,0,0-1.34-.81,1.7,1.7,0,0,0-.67.13,2.6,2.6,0,0,0-.62.44Zm14.46-1.83H95.87v3.46L93,10.32H91.69V16h1.37V12.35l3,3.63h1.15ZM101.81,15c-.27.2-.36.22-.44.22s-.19-.08-.19-.27V13.24c0-.84-.64-1.16-1.57-1.16a3,3,0,0,0-1.61.46v1a2,2,0,0,1,1.37-.64c.5,0,.66.29.64.64-1.55.5-2.2.68-2.2,1.59a1,1,0,0,0,1,.94,2,2,0,0,0,1.23-.43c.08.31.26.43.65.43a2.23,2.23,0,0,0,1.09-.35Zm-1.8,0a1,1,0,0,1-.65.29.39.39,0,0,1-.37-.41c0-.38.33-.55,1-.8Zm4.67-2.89h-1.36V11h-.14l-1.55,1.79V13h.53v1.64a1.29,1.29,0,0,0,1.44,1.43,2.54,2.54,0,0,0,1.08-.24v-.87a1.56,1.56,0,0,1-.78.22.55.55,0,0,1-.58-.52V13h1.36Zm3,3.82h1.16V12.15h-1.17v2.44a.9.9,0,0,1-.8.66c-.3,0-.58-.19-.58-.73V12.15h-1.17V14.6a1.31,1.31,0,0,0,1.36,1.45,1.47,1.47,0,0,0,1.2-.62Zm3-3.82h-1.17V16h1.17V14.33c.26-.71.53-1.12,1-1.12a1.27,1.27,0,0,1,.7.28l.32-1.06a1.24,1.24,0,0,0-.77-.35c-.45,0-.84.37-1.19,1.17h0ZM116.16,15c-.28.2-.36.22-.44.22s-.2-.08-.2-.27V13.24c0-.84-.63-1.16-1.57-1.16a3,3,0,0,0-1.6.46v1a2,2,0,0,1,1.37-.61c.51,0,.67.29.65.64-1.56.5-2.21.68-2.21,1.6a1,1,0,0,0,1,.93,2,2,0,0,0,1.22-.43c.08.31.27.43.65.43a2.27,2.27,0,0,0,1.1-.35Zm-1.8,0a1,1,0,0,1-.65.29.41.41,0,0,1-.38-.41c0-.38.33-.54,1-.8Zm2.15.93h1.16V10.32h-1.16Zm-66,9.74A25.82,25.82,0,0,0,41,5.65a17.37,17.37,0,0,1,4,10.18v0c0,.44.05.88.05,1.33,0,10.37-7.55,17.08-16.17,18.58-1.06.18-1.89.38-2.88.62l1,.38,3.08,1.32,8.72,3.76a10.74,10.74,0,0,0,3.09.88,3.79,3.79,0,0,0,3.25-1.25s0,0,0,.1a25.9,25.9,0,0,0,5.36-15.83Z"></path>
      <path d="M39.52,46.77a9.09,9.09,0,0,1-4.07-1.43L24.64,39.57c-1.5-.71-2.19-1.21-3.84-1.21-2.08,0-3.25.88-4.69,2.25-.32.28-.53.44-.69.44s-.28-.39-.34-.74a2.27,2.27,0,0,1,0-.52c.08-.72,1.15-.86,2.55-1.59.46-.24.94-.49,1.52-.76.82-.4,1.86-.84,3.36-1.4.16-.07.33-.12.51-.18,2.3-.75,5.21-1,8.51-2.51,5.54-2.49,7.9-8.45,7.9-15.69,0-1.07,0-2.1-.13-3.09h0c-.72-8-4.37-13.62-12-14.47-.67,0-1.34-.09-2-.09a23.16,23.16,0,0,0-2.36.12c-8.45,1-11.93,8-11.93,17.54a27.46,27.46,0,0,0,.45,5.12C12.56,29,16.07,33.5,22.64,34.4h0a12.57,12.57,0,0,0-2.54.9C12.82,33.6,6.56,28.18,5.42,19.9a20.9,20.9,0,0,1-.18-2.74A17.54,17.54,0,0,1,9.07,6,25.86,25.86,0,0,0,0,25.72,25.48,25.48,0,0,0,25.23,51.44a24.81,24.81,0,0,0,11.77-3,25.93,25.93,0,0,0,2.73-1.71ZM11.28,20.15c0,.69,0,1.35.06,2C11.3,21.5,11.28,20.84,11.28,20.15ZM118.81,7.76h-.63V9.53H118V7.76h-.63V7.63h1.42v.13m.5-.13L120,9.31l.68-1.68h.21v1.9h-.16V7.85l-.68,1.68h-.12l-.69-1.67V9.53h-.15V7.63h.2m-9,18.15h7.36V24.05H114.2l3.62-5.56h-7.59v1.73H114l-3.63,5.56m-8.56-5.46v5.46h2.48V20.32h2.21V18.49h-6.9v1.83h2.21M89,25.78h2.48V22.73h.68c.67,0,1.06.72,1.58,2l.45,1.08h2.44l-.84-1.92c-.39-.87-.65-1.37-1.16-1.6a1.77,1.77,0,0,0,1.14-1.69c0-1.14-.82-2.08-2.73-2.08H89v7.29m2.48-4.17V19.66h.73c.78,0,1.21.33,1.21,1s-.46,1-1.26,1ZM76.61,25.78h2.46l.47-1.18h3.2l.47,1.18h2.46l-3.23-7.29h-2.6l-3.23,7.29m3.44-2.5,1.09-2.89,1.08,2.89ZM70.33,51.71H66.08V56h-.77V46.86H71v.65H66.08v3.55h4.25v.65m5-1.87a2.94,2.94,0,0,0-.51-.05,1.89,1.89,0,0,0-1.19.39,2.25,2.25,0,0,0-.69,1.14V56h-.74V49.2h.73v1.08a2,2,0,0,1,1.91-1.21,1.43,1.43,0,0,1,.5.09l0,.68M76,52.48a4,4,0,0,1,.38-1.76A2.85,2.85,0,0,1,79,49.07a2.8,2.8,0,0,1,2.18,1A3.64,3.64,0,0,1,82,52.53v.16a4,4,0,0,1-.38,1.76,2.83,2.83,0,0,1-1.06,1.21,2.93,2.93,0,0,1-1.57.43,2.77,2.77,0,0,1-2.19-1A3.64,3.64,0,0,1,76,52.63v-.15m.75.21a3,3,0,0,0,.63,2,2.12,2.12,0,0,0,3.29,0,3.22,3.22,0,0,0,.63-2v-.15A3.47,3.47,0,0,0,81,51.06a2.33,2.33,0,0,0-.81-1A2.07,2.07,0,0,0,79,49.71a2,2,0,0,0-1.64.79,3.2,3.2,0,0,0-.63,2Zm7.52-3.49,0,1.1a2.59,2.59,0,0,1,.94-.92,2.63,2.63,0,0,1,1.25-.31,1.91,1.91,0,0,1,2,1.32,2.42,2.42,0,0,1,1-1,2.76,2.76,0,0,1,1.34-.35c1.45,0,2.19.8,2.22,2.38V56h-.75V51.51a2,2,0,0,0-.39-1.35,1.58,1.58,0,0,0-1.25-.44,2,2,0,0,0-1.37.53,1.78,1.78,0,0,0-.61,1.24V56h-.76V51.45a1.84,1.84,0,0,0-.41-1.3,1.63,1.63,0,0,0-1.24-.43,1.91,1.91,0,0,0-1.21.41,2.3,2.3,0,0,0-.75,1.2V56H83.5V49.2h.72m15-2.34,3.36,8,3.37-8h1V56h-.77V52l.07-4.06-3.39,8h-.6l-3.37-8L99,52v4h-.77V46.86h1m15.21,6.87a1.46,1.46,0,0,0-.53-1.2,5.73,5.73,0,0,0-1.94-.84,6.93,6.93,0,0,1-2.07-.86,2.1,2.1,0,0,1-.56-2.92,1.9,1.9,0,0,1,.5-.52,3.46,3.46,0,0,1,2.2-.65,3.64,3.64,0,0,1,1.62.35,2.67,2.67,0,0,1,1.11,1,2.55,2.55,0,0,1,.39,1.4h-.77a1.93,1.93,0,0,0-.64-1.51,2.48,2.48,0,0,0-1.72-.56,2.72,2.72,0,0,0-1.66.46,1.48,1.48,0,0,0-.62,1.22,1.38,1.38,0,0,0,.56,1.14,5.09,5.09,0,0,0,1.78.77,8.65,8.65,0,0,1,1.86.69,2.71,2.71,0,0,1,1,.86,2.17,2.17,0,0,1,.32,1.19,2,2,0,0,1-.86,1.72,3.62,3.62,0,0,1-2.27.65,4.42,4.42,0,0,1-1.76-.34,2.7,2.7,0,0,1-1.22-1,2.52,2.52,0,0,1-.42-1.43h.77a1.79,1.79,0,0,0,.72,1.52,3,3,0,0,0,1.91.56,2.79,2.79,0,0,0,1.71-.47,1.43,1.43,0,0,0,.64-1.24M117,46.86h.77V56H117ZM55.23,36.09h62.52v.22H55.23Z"></path>
    </g>
  </g>
</svg>
