<?xml version="1.0" encoding="UTF-8"?>
<svg xmlns="http://www.w3.org/2000/svg" id="Capa_1" data-name="Capa 1" viewBox="0 0 768 300">
  <path d="M189.45,91.22c-.77,1.25-1.3,2.1-1.81,3-6.46,11-5.57,21.83.67,32.5,3.34,5.69,6.18,11.55,7.26,18.11,1.74,10.71-1.09,19.68-10.1,26.26a10.29,10.29,0,0,1-6.31,2.09q-31.64-.06-63.26,0c-1.63,0-2.16-.44-2.16-2.1q.06-39.06,0-78.1c0-2,1.13-1.86,2.42-1.86h71C187.73,91.11,188.36,91.16,189.45,91.22Z"></path>
  <path d="M607.38,136.28c1,6.46,3.83,11.36,9.51,14.17,6,2.93,11.77,2.39,17.3-1.26a5.45,5.45,0,0,0,1.54-1.2c1.54-2.23,3.42-1.89,5.6-1.11,3,1.05,6,1.86,9.2,2.83a28.51,28.51,0,0,1-10.61,10.85c-9.79,5.72-25.21,4.94-34.23-1.92-6.46-4.91-10.15-11.63-11.6-19.52a34.67,34.67,0,0,1,5.51-26.76c6.14-9,15-12.76,25.64-12.53,16.73.38,28.8,12.91,29,30,0,1.61-.2,3.21-.18,4.82,0,1.44-.64,1.72-2,1.72-14.18-.07-28.36-.07-42.54-.08Zm.6-10.91h32.23a15.5,15.5,0,0,0-16.14-14C615.56,111.62,608.3,117.91,608,125.37Z"></path>
  <path d="M380.75,136.27H334.11c0,7.76,7.25,15.26,15.15,15.92a17.09,17.09,0,0,0,13.95-5.09,2.57,2.57,0,0,1,3-.73c3.5,1.17,7,2.18,10.83,3.33-.4.7-.67,1.25-1,1.77a27.5,27.5,0,0,1-21,12.64c-7.51.76-14.82-.05-21.26-4.39-8.43-5.67-12.75-13.92-13.58-23.84-1-11.84,2.32-22.42,12-29.85s20.82-8.4,31.91-3.32,16,14.29,16.67,26.1C380.87,131.23,380.75,133.66,380.75,136.27Zm-14.12-10.79c.24-7.24-7.24-14-15.49-14.09-8.62-.11-16.65,6.66-16.59,14.09Z"></path>
  <path d="M495.79,164.41c-18.87-.08-32.18-13.75-32.12-33,.06-18.37,13.94-31.65,33-31.55,18,.09,31.16,14,31,32.83C527.54,151,514,164.49,495.79,164.41Zm18.28-32.28c-.73-3-1.09-6.09-2.21-8.85-2.84-7-8.16-10.67-15.75-10.82-7.4-.14-12.84,3.06-16.06,9.79a22.76,22.76,0,0,0-1.67,14.81c1.67,8.11,7.47,13.74,15.26,14.67a17,17,0,0,0,17.93-10.24C512.83,138.61,513.24,135.35,514.07,132.13Z"></path>
  <path d="M587.56,162.92h-14v-2l0-35.21a19.82,19.82,0,0,0-.1-2.32c-.82-6.83-4.59-10.87-10.55-11.35-7.47-.6-13.33,3-15.09,9.51a26.89,26.89,0,0,0-.77,6.71c-.06,10.78,0,21.56,0,32.35v2.28H532.82V101.33h13.07v6.36a12.73,12.73,0,0,0,1.06-.92c7.79-8.48,23.51-9,32-2.85a20.61,20.61,0,0,1,8.63,16.91c.28,13.82.14,27.65.17,41.47A2.81,2.81,0,0,1,587.56,162.92Z"></path>
  <path d="M383.4,149.68c3.94-1.19,7.79-2.38,11.67-3.47.36-.1,1.06.36,1.34.75a16.19,16.19,0,0,0,7.59,6.28,14.78,14.78,0,0,0,11.95-.81c3.39-1.67,4.85-5.05,3.73-8.16-.93-2.61-3.17-3.61-5.6-4.21-3.76-.94-7.54-1.76-11.31-2.63-1.86-.43-3.74-.79-5.57-1.3-11-3.12-15.76-13.86-10.67-24.2a16.19,16.19,0,0,1,6.64-7.29c9.67-5.31,19.53-6,29.59-1,5,2.51,7.8,6.78,9.79,12.11l-12.75,3.9a12.14,12.14,0,0,0-5.2-6.19c-4.24-2.39-9.91-2.21-13.54.53-4.05,3-3.65,8.06,1,10.17a37.23,37.23,0,0,0,6.5,1.83c4.28,1.06,8.64,1.84,12.83,3.13,7.6,2.35,11.88,7.53,12.31,14.34.53,8.53-3,14.89-10.38,18.28-9,4.13-18.28,4.59-27.58.82a21.89,21.89,0,0,1-12-11.87A7.77,7.77,0,0,1,383.4,149.68Z"></path>
  <path d="M217.91,149.71c4-1.22,7.86-2.43,11.74-3.51.38-.11,1.13.45,1.44.89,2.07,2.87,4.53,5.23,8,6.33a14.69,14.69,0,0,0,11.76-1.18,6.41,6.41,0,0,0,3.71-6.75c-.33-3-2.37-4.5-5-5.17-5.65-1.43-11.37-2.63-17-4-4.55-1.1-8.44-3.26-11-7.38-4.86-7.89-1.91-19.71,6.38-24.37,9.29-5.22,18.95-5.93,28.78-1.3,5.31,2.51,8.41,6.82,10.45,12.47l-12.72,3.88c-.33-.64-.61-1.21-.9-1.78-3.41-6.54-13.73-8.21-18.79-3-2.76,2.81-2.48,6.92,1,8.78a34.48,34.48,0,0,0,7.59,2.42c4.43,1.16,9,1.91,13.32,3.35,6.93,2.29,11.28,7,11.68,14.62.4,7.8-2.65,13.89-9.78,17.4a33.25,33.25,0,0,1-28.37,1.12,21.57,21.57,0,0,1-11.49-11C218.4,151,218.21,150.44,217.91,149.71Z"></path>
  <path d="M440.54,113.06h-5.16V101.32h5.1V88.93H454.7v12.23h18.48l.42.64a7,7,0,0,0-1.19.61,32.89,32.89,0,0,0-8.53,9.52,2.1,2.1,0,0,1-2.16,1.13c-2.25,0-4.5,0-6.91,0v49.82H440.54Z"></path>
  <path d="M314.07,162.85H300.21v-3.43q0-37,0-74c0-1.63.26-2.52,2.1-3,3.29-.77,6.5-1.93,9.74-2.92.61-.18,1.24-.31,2.05-.51Z"></path>
  <path d="M289.79,112.27v50.54h-14V112.27Z"></path>
  <path d="M290.64,96.24a7.89,7.89,0,0,1-8,8.06,8,8,0,1,1-.06-16.06A7.91,7.91,0,0,1,290.64,96.24Z"></path>
  <path d="M437.48,207.7c0,5.61-3.29,9.08-8.71,9.1-5.12,0-8.51-3.51-8.55-8.91s3.32-8.84,8.55-8.89S437.44,202.35,437.48,207.7Zm-3.65.19c.13-4.4-3-7.14-6.71-5.81-2,.72-3.15,2.66-3.22,5.45-.11,3.89,1.74,6.4,4.78,6.52S433.72,211.88,433.83,207.89Z"></path>
  <path d="M488.49,199.58c3-.52,3.08-.48,3.08,2.14,0,4.81,0,9.62,0,14.39a2,2,0,0,1-2.71-.76c-2.22-2.79-4.48-5.55-6.73-8.32a3.21,3.21,0,0,0-1.48-1.08v10.21c-3,.55-3.18.45-3.18-2.07,0-3.34.07-6.67,0-10a41.66,41.66,0,0,0-.67-4.67c1.67-.23,3.57-.48,5,1.71s3.28,4.21,5,6.3c.42.53.9,1,1.72,1.94Z"></path>
  <path d="M553.36,216.8c-5.2-.05-8.58-3.6-8.49-8.93.09-5.6,3.35-8.93,8.69-8.88s8.54,3.53,8.51,9.1C562,213.41,558.6,216.85,553.36,216.8Zm5.3-9c-.24-1-.41-2-.74-2.92a4.75,4.75,0,0,0-9,0,7.57,7.57,0,0,0,.36,6.57,5.46,5.46,0,0,0,2.43,2.16C555.38,215.1,558.51,212.36,558.66,207.84Z"></path>
  <path d="M524.71,199.38c1.82-.18,3.82-.36,5.28,2.06a57.78,57.78,0,0,0,4.72,6,3.72,3.72,0,0,0,1.68,1.25v-9.27h3v16.68c-1.07.61-1.82.18-2.53-.72-2.18-2.75-4.4-5.47-6.62-8.2-.39-.48-.82-.93-1.24-1.39l-.46.14v10.32h-3v-5.73c0-2.2.09-4.41,0-6.61A40.49,40.49,0,0,0,524.71,199.38Z"></path>
  <path d="M233.47,205.06c0-2.86,0-5.73,0-8.58,0-.49.55-1.38.83-1.38,3.09,0,6.25-.16,9.23.45,4.84,1,7.3,5.11,6.93,10.6a9.13,9.13,0,0,1-8.28,8.84c-2.48.25-5,.16-7.49.27-1.11.06-1.27-.55-1.27-1.45C233.48,210.89,233.47,208,233.47,205.06Zm2.16,0h0c0,2.21,0,4.41,0,6.62,0,1.16.31,1.8,1.62,1.7,1.13-.09,2.27,0,3.4-.05,4.63-.29,7.5-3.19,7.72-7.75.24-4.74-2.29-7.91-6.95-8.59-1.4-.2-2.85-.1-4.28-.19-1.08-.06-1.48.41-1.46,1.47C235.66,200.53,235.63,202.79,235.63,205.05Z"></path>
  <path d="M415.59,203c-3.54-1.4-7.08-2.24-9.81,1.44a6.12,6.12,0,0,0,.33,7.2c2.73,3.39,6.11,2.29,9.44,1.16.62,2.65.25,3.28-2.21,3.82-5.66,1.22-10.55-1.32-11.85-6.17A8.89,8.89,0,0,1,410,199a17.19,17.19,0,0,1,3.21.15C415.91,199.62,416.16,200.06,415.59,203Z"></path>
  <path d="M460.28,216.42v-17h9.84c-.15,2.36-.29,2.49-2.6,2.46h-1.07c-2.88,0-3.51.74-2.78,3.62a1.64,1.64,0,0,0,1.23.87c1.35.12,2.71,0,4.14,0,0,1.8-.48,2.87-2.36,2.63-.53-.06-1.07,0-1.61,0-1-.05-1.58.33-1.47,1.45a6.22,6.22,0,0,1,0,1.43c-.18,1.41.4,1.91,1.81,1.82,1.6-.1,3.21,0,4.82,0a1,1,0,0,1,.32.12c-.27,2.46-.35,2.54-2.79,2.54Z"></path>
  <path d="M442.61,213.36c1.67.25,3.34.6,5,.74,1.25.11,2.43-.53,2.45-1.8a3.79,3.79,0,0,0-1.46-2.33,13,13,0,0,0-2.68-1.38c-2.48-1.26-3.49-2.87-3.19-5a5.26,5.26,0,0,1,4.72-4.44,11.07,11.07,0,0,1,3.2,0c2.62.4,2.78.7,2.45,3.3a20.45,20.45,0,0,0-4.46-.69,3,3,0,0,0-2.33,1.62c-.15.71.74,1.85,1.45,2.48a11.41,11.41,0,0,0,2.72,1.31c2.41,1.13,3.56,3,3.22,5.17a5.24,5.24,0,0,1-4.76,4.36,22,22,0,0,1-3,0C442.77,216.65,442.67,216.54,442.61,213.36Z"></path>
  <path d="M504.41,216.3H501V205.7c0-.71,0-1.42,0-2.14.05-1-.37-1.57-1.46-1.47-.35,0-.71,0-1.07,0-2.32,0-2.32,0-2.06-2.57h13.05c-.24,2.51-.3,2.57-2.59,2.57-2.47,0-2.47,0-2.47,2.45Z"></path>
  <path d="M386,214c.74-2.16,1.49-4.31,2.23-6.46.63-1.86,1.34-3.7,1.84-5.6.36-1.34,1.05-1.73,2.58-1.28-.65,2-1.28,3.89-1.95,5.83-1.2,3.49-2.4,7-3.63,10.45s-3,4.43-6.79,3.83c-.44-1.05,0-1.43,1.07-1.56,2.74-.32,3.22-.79,3.82-3a18.41,18.41,0,0,1-1.88-3c-1.54-4.12-3-8.28-4.44-12.49,1.4-.45,2.12-.15,2.56,1.27,1.25,4,2.65,8,4,12Z"></path>
  <path d="M266.11,211.58c-1.44,2.9-3.84,4.12-7.35,3.74a6.41,6.41,0,0,1-5.66-5.16c-1.42-5.89,2.32-10.44,8-9.72a6.38,6.38,0,0,1,5.37,6.71c-.05.39-.91,1-1.4,1-2.85.1-5.71.1-8.57,0-1.5,0-1.91.5-1.46,1.93.59,1.89,1.62,3.3,3.67,3.69a4.88,4.88,0,0,0,5.12-1.66,6.72,6.72,0,0,1,2-1.14ZM255,206.89h9.43c0-3.12-1.81-5.15-4.52-5.18S255,203.8,255,206.89Z"></path>
  <path d="M336.84,208.25H325.61c-.21,2.62.81,4.44,2.77,5.23a5.12,5.12,0,0,0,6-1.31,4.31,4.31,0,0,1,2.06-1c-.9,3.45-4.42,5-8.18,4s-5.62-4.92-4.64-9.4c.83-3.76,4.25-5.93,8.27-5.23C335.31,201.08,337.36,204.12,336.84,208.25Zm-11.21-1.32h9.28a4.6,4.6,0,0,0-4.43-5.25A4.73,4.73,0,0,0,325.63,206.93Z"></path>
  <path d="M279.93,204.4a7.28,7.28,0,0,1-1.82-1.2c-1.38-1.69-4.91-2.1-6.42-.55a2.22,2.22,0,0,0-.6,1.86,3,3,0,0,0,1.65,1.61,29,29,0,0,0,4.19.82c2.63.48,3.92,1.71,4,3.8s-1.19,3.71-3.66,4.38c-3.35.91-6.93-.29-8.17-2.74a6.29,6.29,0,0,1-.34-1l.33-.49a7.07,7.07,0,0,1,2,1.25c1.44,1.75,4.6,2.56,6.42,1.23a3.39,3.39,0,0,0,1.28-2.62,3.45,3.45,0,0,0-2-2.11,33.54,33.54,0,0,0-4.52-.94c-2.3-.52-3.27-1.55-3.29-3.35a3.49,3.49,0,0,1,3.18-3.69,17.06,17.06,0,0,1,5.61.22C279.15,201.18,280.16,202.31,279.93,204.4Z"></path>
  <path d="M301.34,210.61a9.36,9.36,0,0,0,0-6.31c1.55-.27.75-1.5.79-2.24.08-1.33.44-1.92,1.93-1.4,0,5.08.26,10.2-.08,15.28-.26,3.86-4.38,5.75-8.89,4.54a5.3,5.3,0,0,1-4.23-4.38,13.72,13.72,0,0,1,2.69,1.48,5.82,5.82,0,0,0,5.81,1.2c2-.74,2.62-2.29,2.6-4.23,0-1.35-.1-2.7-.16-4.05,0,0-.11-.08-.15-.06A1.69,1.69,0,0,0,301.34,210.61Z"></path>
  <path d="M517.93,207.88c0,2.38,0,4.76,0,7.13,0,1.28-.58,1.48-1.64,1.44s-1.86,0-1.84-1.47c0-4.75.06-9.51,0-14.27,0-1.52.92-1.35,1.87-1.4s1.68.13,1.63,1.43C517.87,203.12,517.94,205.5,517.93,207.88Z"></path>
  <path d="M350.64,211.08a5,5,0,0,1-3.56,4.22,5.6,5.6,0,0,1-6.17-2.15,9.17,9.17,0,0,1-.39-10,5.42,5.42,0,0,1,5.49-3,4.91,4.91,0,0,1,4.48,3.57,22.85,22.85,0,0,0-3.57-1.78c-1.58-.49-2.91.36-4,1.49-2.24,2.42-1.93,7.16.58,9.22,2.26,1.87,5.06,1.26,7.15-1.57Z"></path>
  <path d="M365.74,210.71c2.45,3.19,5.17,3.89,7.49,1.94s2.67-6.29.77-8.81c-1.69-2.25-4.3-2.41-7.25-.46.54-2.69,4.14-4,7-2.48,2.68,1.45,3.64,3.95,3.68,6.86s-1,5.55-3.67,7.06c-3.29,1.83-6.95-.16-8-4.17Z"></path>
  <path d="M301.37,204.36c-1.27-1.74-2.85-2.9-5.13-2.45a4.75,4.75,0,0,0-3.79,4,5.84,5.84,0,0,0,1.83,6c2,1.74,4.36,1.34,6.73-1-.52,3.83-5.55,4.47-7.95,2.67-3.58-2.7-3.84-9.07-.42-12A5.35,5.35,0,0,1,301.37,204.36Z"></path>
  <path d="M350.68,211.13c.15-1.75.38-3.49.41-5.24.06-3.84,0-7.68,0-11.68l2.23-.12c.05.67.13,1.19.13,1.71,0,5.9,0,11.8,0,17.7,0,.66.39,1.82-.88,1.65-.39-.05-.66-1.08-1-1.68-.4-.76.67-2.12-1-2.39Z"></path>
  <path d="M365.79,210.65c-.25,1.12-.44,2.26-.78,3.36-.13.45-.59.81-.9,1.21-.3-.42-.86-.83-.86-1.25-.06-6.18-.08-12.37,0-18.55,0-.45.76-.89,1.16-1.34.3.46.86.91.87,1.37.07,4.09,0,8.18.07,12.27a23.57,23.57,0,0,0,.4,3Z"></path>
  <path d="M311.24,203.11a3.73,3.73,0,0,1,4-2.81c2.42,0,4.56,1.09,4.8,3.16a109.66,109.66,0,0,1,.45,11c0,.24-.81.77-1.12.69s-1-.66-1-1a50.67,50.67,0,0,1,0-7C318.73,202.88,315.48,200.5,311.24,203.11Z"></path>
  <path d="M287,200.48c0,4.76,0,9.21,0,13.66,0,.37-.63.73-1,1.1-.35-.43-1-.84-1-1.27-.08-3.26-.07-6.53,0-9.8,0-1.26-.06-2.26-1.76-2.11-.3,0-.66-.57-1-.87.33-.24.66-.65,1-.68C284.37,200.42,285.55,200.48,287,200.48Z"></path>
  <path d="M308.21,200.67c1.34-.41,1.91-.08,1.91,1.16,0,4.07.13,8.14.11,12.21,0,.41-.69.81-1.05,1.21-.33-.38-.93-.76-.93-1.15C308.18,209.65,308.21,205.2,308.21,200.67Z"></path>
  <path d="M285.88,197.63c-.56-.88-1.18-1.43-1.09-1.81a1.75,1.75,0,0,1,1.31-1c.31,0,1,.7,1,1.07S286.49,196.81,285.88,197.63Z"></path>
</svg>
