<?xml version="1.0" encoding="UTF-8"?>
<svg xmlns="http://www.w3.org/2000/svg" id="Capa_1" data-name="Capa 1" viewBox="0 0 768 300">
  <path d="M128.88,90.61c5.12,2.64,10.07,5.75,15.42,7.8,4.3,1.65,9.1,2,13.61,2.94.62,4-.16,10.31,2.61,13.76s9.07,4,13.83,5.75l.8-1.27c.08,1.1.24,2.2.22,3.29-.25,11.56-.67,23.12-.77,34.68-.24,28-25.74,48.3-48.67,51.77a11,11,0,0,1-3-.1c-22.39-3-43-22-47.25-43.95-.95-5-.56-10.19-.84-15.29-.26-4.92-.6-9.84-.9-14.76V119.37c1.66,0,3.32,0,5,0,9.38-.14,12.82-3.89,12.21-13.29-.12-1.91-.29-3.82-.35-4.6,5.24-1.1,10.16-1.55,14.62-3.22,5.37-2,10.33-5.06,15.47-7.66Zm-51.49,31.3c0,11.2.17,22.38,0,33.55-.5,26.6,21.31,44.8,41.45,50,2.67.69,5.73,1.26,8.33.68,20.93-4.65,36.52-16.12,42.93-37,2.41-7.84,1.94-16.62,2.33-25,.35-7.51.07-15,.07-22.55-14.85-1.17-16.6-3.11-16.43-18.56-7,1.64-12.38-1.72-17.88-5.34-8.19-5.36-16.9-5.85-25.42-.78-6.09,3.61-11.66,8.33-19.56,5.92C93.78,115.09,94.49,120.61,77.39,121.91Z"></path>
  <path d="M458.32,179q-92.32,0-184.65.07c-2.7,0-5.38,1.13-8.11,1.37-1.28.11-3.13-.29-3.82-1.17a3.93,3.93,0,0,1,0-3.83c.69-.89,2.54-1.35,3.83-1.25,3.22.25,6.41,1.35,9.61,1.35q183.64.12,367.3,0c3,0,6.06-1.09,9.12-1.34,1.29-.1,3.2.28,3.85,1.16a4.14,4.14,0,0,1,0,3.94c-.64.87-2.54,1.21-3.83,1.1-2.89-.24-5.74-1.33-8.6-1.34q-92.33-.12-184.65-.06Z"></path>
  <path d="M613.05,159.35c6.44-.6,6.43-4.95,6.38-9.36-.08-6.93-.24-13.87-.11-20.81.07-3.83-.57-6.87-5.2-7.92,11.8-.42,23.76-4,34.5,3.45,11.57,8,9.46,27.16-3.85,33.3-4.08,1.89-8.91,2.56-13.47,2.93-5.85.49-11.77.12-17.66.12ZM630,122c-4-.82-5.37,1.3-5.19,5.8.3,7.56,0,15.14.1,22.71s3.14,9.83,10.61,8.25c9.49-2,15.38-10.45,14.39-20.65C649,128.24,641.84,122.25,630,122Z"></path>
  <path d="M358.52,159.14c5.16-.44,6.32-3.48,6.16-7.9-.24-6.93-.19-13.87-.05-20.8.08-4.08.07-7.88-5.52-8.86l.66-1.72c9.27.54,18.72.16,27.75,1.9,8.85,1.7,13.73,9.26,13.86,17.75.14,8.67-5.11,17.11-13.47,19.37-6,1.61-12.41,1.61-18.66,2-3.41.19-6.85-.35-10.28-.55Zm11.73-19.94h0c0,4.11-.1,8.22,0,12.33.18,6.16,2.43,8.12,8.69,7.45,7-.74,12.12-4.17,14.71-10.82,2.93-7.51,2.29-14.66-3.25-20.73-4.76-5.22-11.27-5.84-17.88-5.1-.85.09-2.09,2-2.15,3C370.11,130,370.25,134.59,370.25,139.2Z"></path>
  <path d="M482.92,159.83c-6.37,1.95-10.28.77-13.78-3.94-2.56-3.45-4.62-7.27-7.37-10.55-1.59-1.9-4.09-3.05-6.6-4.83-2.4,10.69-1.1,16.23,5.23,20.21-3.74-.17-6.23-.33-8.73-.39s-5.22,0-8.33-.31c7-2.05,5.68-7.55,5.78-12.34.13-6.26,0-12.54-.08-18.8,0-3.48-.33-6.79-5.25-7.5,8.36-.46,16.51-3,24.23.7,6.13,2.93,6.71,11.17,1.52,15.89a46.48,46.48,0,0,1-4.05,2.93C470.19,148,473.48,156.05,482.92,159.83Zm-28.51-19.59a63,63,0,0,0,6.59-1.09,8.57,8.57,0,0,0,6.21-9.91,8.72,8.72,0,0,0-9.57-6.84c-1.19.19-3,1.73-3.08,2.75C454.23,129.87,454.41,134.63,454.41,140.24Z"></path>
  <path d="M691.74,130.49c-.89-1.43-1.74-2.9-2.69-4.29-3.06-4.51-9.45-5.64-13.53-2.44a8.66,8.66,0,0,0-.41,13.46c3.28,3,7.47,5,10.71,8,2.93,2.73,5.93,5.91,7.45,9.5,2.35,5.54-1.26,12.63-7.48,14.8A30.87,30.87,0,0,1,673.2,171c-8.38-.73-9.8-3-8.86-13.09,1.39,2.07,2,3.53,3,4.42,2.69,2.27,5.31,5,8.48,6.21,3.82,1.45,7.61-.19,9.89-3.81a8.34,8.34,0,0,0-.71-10.55,36.68,36.68,0,0,0-5.57-4.89c-2.48-1.93-5.27-3.49-7.61-5.56-4.49-3.94-7.21-8.64-5.06-14.89s7-8.62,13-9.11c3.24-.26,7.28-.46,9.67,1.17s3.11,5.56,4.57,8.48Z"></path>
  <path d="M254.32,131.46c-1.39-2.39-2.13-3.82-3-5.16-2.22-3.37-5.57-5.31-9.34-4a13,13,0,0,0-6.88,5.5c-1.81,3.38-.74,7.23,2.45,9.8,3.35,2.69,7,5,10.46,7.57,7,5.19,9.51,10.93,7.33,16.81-2.31,6.22-9.59,10.24-17.54,9.65-.66-.05-1.31-.21-2-.3-8.83-1.3-10.07-2.84-9.62-13.42,1.58,2.15,2.33,3.65,3.5,4.66,2.54,2.2,5,4.9,8,6,4,1.48,7.92-.12,10.29-4,2.24-3.65,2-7.49-1-10.49a69.38,69.38,0,0,0-9.32-7.34c-8.34-5.83-11.26-12-8.58-18.58s10-9.57,19.5-8C254.94,121.15,255.67,122.4,254.32,131.46Z"></path>
  <path d="M347.22,161.38l-28.54-32.45-1.13.34c0,8.48-.26,17,.2,25.43.11,1.85,2.77,3.56,4.38,5.48H308.94c5.14-1.89,5.3-6,5.48-10.22.24-5.93.39-11.89,1-17.79.53-5.36-.2-9.61-7.14-10.43,5.66-2.6,9.95-1.63,13.41,2.32,7.71,8.78,15.52,17.48,24,27.05,0-9.29.23-17.29-.17-25.25-.1-1.91-2.3-3.71-3.13-5h12.06c-7.73,3-5.49,9.72-5.73,15.32-.34,8.17-.09,16.37-.09,24.55Z"></path>
  <path d="M602.91,162.42l-30.54-34.67c0,10.2-.19,19,.16,27.71.07,1.83,2.11,3.58,2.81,4.68H563.91c6.25-2.09,5-7.41,5.27-12,.32-4.78.63-9.56.83-14.35.36-8.79.32-8.79-6.41-12.67,7.26-1.88,9.27-1.07,13.9,4.26,7.32,8.41,14.87,16.63,23.15,25.86,0-9.15.31-16.84-.21-24.48-.14-2-2.91-3.79-4.62-5.86h13.7c-7.94,2.77-5.76,9.19-6,14.46-.4,7.41-.1,14.86-.13,22.3C603.34,158.73,603.15,159.8,602.91,162.42Z"></path>
  <path d="M532.76,136.26l7.27-16.8,1.24.26c3.79,10,7.54,20,11.37,29.92,2.71,7,2.76,7,8.77,10.62H544.87c5.09-3.64,5-5.31.61-14l-12.83-2.38c-1.16,3-3.11,6.5-3.75,10.25-.3,1.71,2,3.85,3.16,5.88H518c8.16-2.6,9-9.18,11.31-14.72,1.88-4.42-1.69-11-6.42-10.93-1.83,0-3.61,2.9-5.84,4.85.37-1.71.22-4.36,1.44-6C520.94,130.06,525.1,131.09,532.76,136.26Zm10.27,6,.9-1.81-5-13.64a81,81,0,0,0-2.79,7.73c-.4,1.7-1,4.55-.17,5.12C537.92,141.11,540.62,141.5,543,142.3Z"></path>
  <path d="M292.43,120.54h12.46c-6.54,3.27-4.64,9.35-5.15,14.56-.46,4.76-.39,9.61-1.36,14.26-1.77,8.53-7.47,12.3-16.85,11.89-9.08-.4-14-4.52-14.94-13.37-.68-6.38-.7-12.84-.76-19.27,0-3.39-.16-6.38-4.38-7.69h14.91c-5.91,1.84-5,6.73-5,11.16,0,5.11-.11,10.25.29,15.34.53,6.66,4.72,10.4,11.41,10.78s11.86-2.74,12.72-9.14a145.12,145.12,0,0,0,1-22.65C296.7,124.5,294.05,122.65,292.43,120.54Z"></path>
  <path d="M438.69,152.1c-.57,8.54-1.07,8.84-8.84,8.65s-15.36,0-23.67-.75c7.3-.82,6.58-5.93,6.71-10.45.2-6.76.22-13.52.38-20.28.08-3.67.06-7.21-4.87-8.4h26.27c.1,2.19.21,4.63.37,7.89-2.18-2.38-3.32-4.61-5.13-5.46-7.13-3.32-11.17-.7-11.27,6.93,0,2.76,0,5.52,0,8.17,7.54,1.46,9.14,1.08,13.38-3.19v10.06c-1.91-1.28-3.61-3.06-5.66-3.62-2.26-.63-4.84-.15-7.78-.15,0,4.6-.34,8.88.2,13.05.18,1.42,2.46,3.47,4,3.67C429,159,435.24,159.34,438.69,152.1Z"></path>
  <path d="M483.43,159.37c5.48-.7,6.22-4.21,6.11-8.66-.18-7.1-.05-14.21.15-21.31.11-3.69,0-7-4.59-8.5h15.09c-6.64,1.78-5.12,7.19-5.15,11.82-.05,6.77.16,13.54.13,20.32,0,3.54,1.6,4.92,5.12,5.13,6.28.38,12.08.05,15.11-7.12-.21,9.35-.73,9.72-9,9.52-7.53-.17-15.06,0-22.59,0Z"></path>
  <path d="M199.54,208.17V92h1V208.22Z"></path>
  <path d="M81.87,125.86C95,122.72,96.72,121,98.42,109.23c5.49-3,10.57-5.6,15.5-8.47,7.68-4.46,15-4.16,22.53.57,4.41,2.78,9.19,5,14.62,7.88-.14,10.1,6.09,15.67,18.28,16.55-1.25,14.72-.58,29.58-4.16,43.35-4.81,18.55-19.24,29-38,33.2a14.52,14.52,0,0,1-5.9-.21c-23-4.74-39-23.94-39.4-47.12C81.74,145.42,81.87,135.87,81.87,125.86Zm38.27,17c3.29,3,6.76,5.82,9.83,9,2.07,2.15,3.58,4.83,5.87,8,3.14-8.74,1.87-14-4.28-19.11-4.31-3.58-9.11-6.58-13.5-10.08-3.62-2.88-5-7.11-2.9-11a14,14,0,0,1,7.56-6.06c4.35-1.34,8,1,10.26,5.08.8,1.4,1.77,2.71,2.66,4.06l1.36-.68c-1.39-3.38,1.63-8.55-4.07-10a37.32,37.32,0,0,0-12.26-.74,13.43,13.43,0,0,0-12.12,9.59c-2,5.71-.23,10.73,3.9,14.94,2,2,4.12,3.78,6.19,5.65-2.41-.57-3.55.29-3.91,2.83a14.12,14.12,0,0,0,4.07,12.54c2.49,2.53,5.36,4.69,8.07,7-10.09,3.43-16.25-1.38-20.34-10.71-1.91,5-.73,11.46,2.28,12.64,6.21,2.42,12.6,3.21,19,.34l-1.1-2.45c3.36,3.25,7.58,6,9.86,9.88,2.51,4.27-.49,9.87-5,11.95-5.14,2.38-11.77.11-15.09-5.15-1.11-1.78-2.25-3.53-3.9-6.11-1.09,8.23.22,12.17,4.26,13.53,6.16,2.08,12.4,2.3,18.49-.3,9.32-4,12.09-14.82,5.46-22.47a44.25,44.25,0,0,0-9.53-7.82C125.78,153.69,121.21,149.68,120.14,142.89ZM125,132.28l-.12,2.1c3.58.55,7.63.27,10.62,1.9s4.89,5.14,7.27,7.84c-.16-3.76,2.21-8.82-2.4-10.31C135.56,132.27,130.13,132.7,125,132.28Z"></path>
</svg>
