<?xml version="1.0" encoding="UTF-8"?>
<svg xmlns="http://www.w3.org/2000/svg" id="Capa_1" data-name="Capa 1" viewBox="0 0 768 300">
  <defs>
    <style>.cls-1{font-size:31.54px;font-family:MyriadPro-Regular, Myriad Pro;}.cls-2{letter-spacing:0em;}.cls-3{letter-spacing:0em;}.cls-4{letter-spacing:-0.05em;}.cls-5{letter-spacing:-0.08em;}.cls-6{letter-spacing:-0.04em;}.cls-7{letter-spacing:-0.03em;}.cls-8{letter-spacing:0em;}.cls-9{letter-spacing:0.01em;}</style>
  </defs>
  <path d="M101.48,123.27c4-17.56,16.44-26.13,32.78-29.79,13-2.91,26.13-4.81,39.22-7.06a16.22,16.22,0,0,1,6.19.5c-14.21,4-14.45,14.1-13,25.65,3.12,24.62,5.72,49.3,8.61,74.6,1.43-.64,2.26-.75,2.65-1.22,16.09-19.42,33.26-38.15,44.7-60.85,5.22-10.34,8.82-21.58,12.23-32.69,2.51-8.16-.82-15.63-6.08-22l19.6-16.45c9.6,13.47,10.1,28.75,2.82,43.45C241.38,117.24,231,137,218.87,155.55c-13.27,20.21-29.06,38.77-43.31,58.36-4.36,6-9.09,9-16.45,7.31-1.88-.42-3.9-.24-6.73-.38,8.11-41-3.29-81.29-2-121.87-19.33-.78-34,12.69-34.5,31.36-.33,12.13-2.5,18.14-8.75,22.91-1.94-5.77-3.79-11.31-5.65-16.85Z"></path>
  <path d="M507.7,172.75c2.05,6.26.1,9.94-5.52,12.1-11.61,4.47-22.82,10.55-34.81,13.38-16.44,3.89-25.24-4-26.19-20.87,0-.73-.19-1.46-.38-2.83-6.72,3.87-12.95,7.61-19.33,11.08-7.5,4.08-15.09,8-22.72,11.83-4.53,2.28-8.94,1.87-10.79-3.32-2.11-5.89-3.21-12.14-4.87-18.7-.09.05-1.72.84-3.3,1.72-12,6.67-23.9,13.41-35.91,20-5.65,3.11-9.15,1.22-9.66-5.2-.28-3.5-.05-7-.05-11.42-7.52,4.95-14.67,9.48-21.61,14.3-3.91,2.72-8.71,5.82-12.42,2.9-3.22-2.53-4.18-8-5.93-12.26-.49-1.19-.24-2.68-.4-5-4.28,2.3-7.9,4.58-11.79,6.27-8,3.48-16,6.73-24.16,9.9-4.58,1.78-8-.58-8.35-4.81-.55-6-.71-12.34.73-18.1,3.19-12.69,7.5-25.09,11.31-37.63.78-2.58,1.32-5.23,2.38-9.5l-18.86,6c-.47-5.6,1.05-9.57,6.75-12.05,8.73-3.79,17.09-8.42,25.74-12.39,1.66-.75,4.91-.89,5.73.09a8,8,0,0,1,1.15,6.33c-4.54,17.28-9.5,34.44-14,51.74-.93,3.58-.36,7.56-.49,11.35,3.62-.49,7.28-.76,10.84-1.5,9.82-2.06,15.6-6.76,17.31-18,3.55-23.38,18.28-38.6,40-47.09a23.06,23.06,0,0,1,10.29-1.73c9,.92,17.9,2.57,27.48,4-13.76,18.38-14.57,39.93-21.39,59.35-1.74,5,.7,7.13,5.55,4.78,9.11-4.39,17.86-9.51,26.67-14.48a5.74,5.74,0,0,0,2.15-3.33c2.33-8.61,4.5-17.26,6.95-26.73l-19.5-1.56c4.64-5.83,9.36-9.82,16.77-8.83,4,.54,6.35-1.07,6.89-5.31a42,42,0,0,1,1.83-6.28C406.7,94.05,406.7,94.05,425,89c-2.77,11-5.46,21.74-8.44,33.61h30.17c-6.37,7.88-12.83,10.7-21.47,10.25-11.26-.59-11.37-.13-14.17,10.81-2.12,8.26-4.38,16.53-5.77,24.93-.53,3.15.21,7.72,2.25,9.69,1.56,1.5,6.5.78,9.22-.49a234.5,234.5,0,0,0,22.48-12.2c1.85-1.13,3.21-3.88,3.79-6.14a72.84,72.84,0,0,1,22.38-37.21c8.41-7.52,18.13-12.15,29.63-12.16,8,0,13,5,13.19,12.94.18,8.93-3.95,16-11,20.74A364.79,364.79,0,0,1,464.36,164c-6.12,3.26-5.47,7.24-4.22,12.25,1.37,5.5,4.64,9.59,10.45,8.25,10.57-2.43,20.91-5.87,31.31-9A42.49,42.49,0,0,0,507.7,172.75ZM350.48,125.42c-15.77-5.77-23.56-3-29.32,11.47-3.5,8.75-5.3,18.22-7.47,27.46a39.5,39.5,0,0,0-.58,10.66c.17,3.57,2.13,5.13,5.58,3.07q8.93-5.37,17.71-11a5.44,5.44,0,0,0,2.11-2.75C342.53,151.49,346.45,138.6,350.48,125.42ZM462,155c10.51-5.69,19.37-10.82,24.69-20.16,2-3.5,3.44-7.86-.35-10.8s-7.51-.26-10.35,2.68C468.83,134.17,465.37,143.52,462,155Z"></path>
  <path d="M659.79,168.28c2,6.93-.12,10.59-5.95,13.47-10.48,5.18-20.49,11.29-30.76,16.92-5.32,2.91-8.65,1.17-9.42-4.85a39.38,39.38,0,0,1,0-5.95c.06-1.71.24-3.42.46-6.27-8.4,5.54-16,10.55-23.55,15.51-8.77,5.74-16.41,2.22-16.75-8.31-.61-19.23,3.38-37.6,13.7-54,8-12.72,20.87-20.28,34.62-23.73,10.4-2.61,21.92.6,32.57,4.63-13.41,17.68-13.92,39.5-21,59-1.51,4.15.95,5.8,4.66,4.5a96.59,96.59,0,0,0,11.79-5.56C653.28,172,656.31,170.23,659.79,168.28Zm-29.92-41.36c-11.88-4.7-19-4.31-24,2.51-10.24,14-13.4,30.29-13.25,47.33,0,3.47,2.12,4.65,5.22,2.8,6.13-3.66,12.21-7.43,18.25-11.25a4.51,4.51,0,0,0,1.7-2.33Q623.92,146.44,629.87,126.92Z"></path>
  <path d="M552.82,119.83c9.88-6.61,19.07-13.32,31.75-7.9-2.23,6.91-4.4,13.62-6.66,20.64-4-1.14-7.37-2.28-10.81-3-10.11-2.22-17.21,2-20,11.86-4.66,16.21-9.37,32.41-13.76,48.7-1,3.58-2.6,5.3-6.17,6-4.44.93-8.77,2.42-14.19,4,.61-2.69,1-4.69,1.52-6.63q7.29-25.78,14.62-51.55a70.12,70.12,0,0,0,1.79-6.91c1-5.53-.79-7.05-6.16-5.24-3.36,1.14-6.59,2.68-9.87,4-2.48-5.82-.84-9.39,4.89-11.72,7.54-3.06,14.81-6.74,22.28-10C550.88,108.28,552.31,109.24,552.82,119.83Z"></path>
  <path d="M287.31,68.7l8.91,16.88L279.08,96.85c-2.88-4.79-5.58-8.89-7.79-13.25-.56-1.1-.06-3.72.87-4.44C276.84,75.59,281.82,72.42,287.31,68.7Z"></path>
  <text class="cls-1" transform="translate(346.53 250.3)">B<tspan class="cls-2" x="17.1" y="0">r</tspan><tspan class="cls-3" x="27.54" y="0">ing</tspan><tspan class="cls-4" x="70.06" y="0"> </tspan><tspan class="cls-5" x="75.29" y="0">Y</tspan><tspan x="89.96" y="0">our</tspan><tspan class="cls-6" x="134.97" y="0"> </tspan><tspan class="cls-7" x="140.53" y="0">W</tspan><tspan x="166.17" y="0">o</tspan><tspan class="cls-8" x="183.49" y="0">r</tspan><tspan x="193.93" y="0">ld </tspan><tspan class="cls-9" x="225.85" y="0">I</tspan><tspan x="233.71" y="0">nside</tspan></text>
</svg>
